<?xml version="1.0" encoding="iso-8859-1"?>
<!-- Generator: Adobe Illustrator 19.0.0, SVG Export Plug-In . SVG Version: 6.00 Build 0)  -->
<svg version="1.1" id="Capa_1" xmlns="http://www.w3.org/2000/svg" xmlns:xlink="http://www.w3.org/1999/xlink" x="0px" y="0px"
	 viewBox="0 0 511.998 511.998" style="enable-background:new 0 0 511.998 511.998;" xml:space="preserve">
<g>
	<path style="fill:#42C5E5;" d="M101.657,177.524c-6.833,14.24-12.431,29.498-18.686,44.04c-3.996,9.288-7.482,19.657-9.732,29.519
		c-2.869,12.575-0.686,27.669,4.669,39.363c6.113,13.35,28.932,16.388,42.093,13.719c20.382-4.133,26.339-27.636,26.499-45.578
		c0.151-16.915-9.85-31.759-17.376-46.192c-5.098-9.777-8.009-20.42-13.38-30.029C114.599,180.321,104.554,165.396,101.657,177.524z
		"/>
	<path style="fill:#42C5E5;" d="M145.967,319.95c-10.721,8.495-17.462,19.954-24.84,31.248
		c-8.714,13.339-15.53,28.667-12.898,45.109c1.858,11.604,12.743,22.921,22.756,28.372c31.95,17.393,32.591-47.751,32.384-64.561
		C163.286,353.441,161.805,315.372,145.967,319.95z"/>
</g>
<path style="fill:#BDBDB5;" d="M249.597,7.709c-25.427-6.027-56.709-1.802-82.415,0.606c-24.651,2.309-49.426,9.128-67.43,26.865
	C86.296,48.435,71.544,71.827,76.97,92.061c2.044,7.621,8.75,8.239,15.729,9.234c10.787,1.537,21.474,3.1,32.357,3.772
	c11.943,0.737,25.656,3.933,34.571-5.134c13.845-14.082,23.072-30.845,41.944-39.31c31.116-13.957,73.285-6.686,98.574,16.265
	c13.254,12.029,16.591,33.566,18.659,50.298c3.593,29.075,1.814,57.827-0.016,86.956c-1.792,28.519-3.042,57.061-4.798,85.604
	c-0.481,7.817-5.287,24.331-1.807,31.699c3.394,7.184,15.873,7.036,22.752,7.224c16.857,0.46,33.159-0.829,49.916-1.906
	c16.295-1.048,16.391-28.843,17.031-41.362c2.314-45.245-5.104-90.876-6.033-136.066c-0.452-21.967-3.798-45.734-8.425-67.238
	c-3.676-17.083-9.802-36.712-21.516-50.116c-12.163-13.917-28.607-17.256-45.418-22.236c-11.288-3.344-22.965-4.546-34.631-5.851
	C275.238,12.706,264.518,10.154,249.597,7.709z"/>
<g>
	<path style="fill:#777873;" d="M171.362,105.201c-9.809-2.081-19.795-0.692-29.79-0.588c-18.228,0.19-36.464,0.248-54.636-0.938
		c-10.448-0.682-24.43-2.25-28.369,9.64c-2.415,7.289-3.313,25.51,0.409,32.542c1.96,3.702,0.596,2.472,4.665,3.524
		c5.202,1.345,13.864-0.114,19.204-0.382c11.793-0.593,23.434,0.559,35.213,0c11.192-0.531,22.431-0.519,33.6-1.092
		c5.251-0.269,12.628,0.834,17.58-1.205C184.762,140.31,179.271,113.325,171.362,105.201z"/>
	<path style="fill:#777873;" d="M377.179,341.108c-20.294-5.338-43.665-1.131-64.455-1.805c-16.814-0.546-39.002-3.71-55.052,2.364
		c-8.89,3.365-15.605,22.028-7.745,29.45c5.153,4.866,17.976,4.187,24.516,4.616c12.282,0.806,24.733,0.278,37.042,0.279
		c21.446,0.002,42.738,1.783,64.182,1.805c15.88,0.017,31.584-0.63,47.447,0.031c7.489,0.312,20.484,2.006,26.565-3.915
		c5.217-5.08,6.023-15.528,3.634-21.986c-3.78-10.218-13.302-11.902-23.16-12.628C414.893,338.195,397.149,336.524,377.179,341.108z
		"/>
</g>
<path style="fill:#42C5E5;" d="M253.208,382.632c3.195,7.496-2.989,20.278-1.833,28.941c1.251,9.376,2.583,9.883,10.407,5.98
	c10.541-5.258,15.991-1.422,23.923,5.775c8.434,7.652,21.854,10.752,33.112,6.875c13.427-4.624,23.58-13.546,38.652-13.269
	c10.913,0.2,16.031,11.146,26.955,12.659c9.701,1.344,21.036-0.167,29.994-3.86c5.307-2.188,9.189-6.112,14.135-8.453
	c2.436-1.153,5.167-1.474,7.784-1.531c1.366-0.03,5.448,1.4,6.45,1.06c4.832-1.64,4.142-13.313,4.455-18.231
	c0.313-4.914,0.158-16.251-4.424-19.434c-3.468-2.409-11.827-0.726-15.669-0.726c-9.404,0-18.808,0.029-28.212-0.002
	c-20.995-0.069-42.183-0.286-63.177-1.07c-18.94-0.707-38.01-1.168-56.967-0.983c-8.366,0.082-16.798-0.988-24.909,0.963
	C253.649,379.223,253.155,381.316,253.208,382.632z"/>
<path style="fill:#FFFFFF;" d="M446.387,418.139c-5.334-3.875-19.737-1.76-25.274,0.898c-6.357,3.051-10.389,7.971-17.323,9.948
	c-16.328,4.657-25.254-2.43-38.363-9.95c-15.181-8.708-28.267,3.01-42.124,8.476c-6.249,2.465-14.836,3.245-21.38,2.969
	c-8.411-0.355-11.438-2.089-16.819-7.993c-7.56-8.296-27.093-11.091-31.16,1.889c-2.297,7.332-2.63,23.742,0.905,30.938
	c2.438,4.963,9.082,8.593,14.057,10.389c7.618,2.75,16.063,4.581,24.172,4.204c11.746-0.545,22.444-6.515,33.442-10.29
	c6.32-2.169,14.331-5.934,21.147-5.928c7.127,0.006,12.111,5.57,18.079,8.679c20.188,10.515,39.848,3.356,60.102-4.216
	c5.652-2.113,16.07-1.563,20.402-5.804C450.776,447.918,453.061,423.831,446.387,418.139z"/>
<path style="fill:#C7743E;" d="M255.615,460.867c3.021,7.725,0.837,18.177,3.613,26.653c3.163,9.656,9.694,10.382,19.517,10.681
	c33.227,1.013,66.496,1.048,99.788,1.76c16.639,0.356,47.082,6.441,61.394-5.367c7.563-6.24,11.168-31.365,3.825-39.472
	c-5.002-5.522-17.559,3.3-23.566,5.879c-13.951,5.989-28.662,10.13-43.768,6.033c-9.481-2.572-16.986-9.016-26.394-11.815
	c-11.35-3.376-20.672,1.684-30.783,6.837c-11.868,6.048-24.44,7.567-37.732,5.446C276.552,466.711,259.58,455.577,255.615,460.867z"
	/>
<path d="M462.32,362.237c-0.601-6.806-1.77-14.718-4.923-20.868c-4.306-8.396-13.392-9.795-22.072-9.738
	c-11.121,0.073-22.247,0.149-33.371,0.161c-0.461,0.001-0.923-0.006-1.385-0.008c4.002-9.066,4.895-19.268,5.807-29
	c1.074-11.461,0.24-22.983-0.358-34.46c-0.618-11.857-0.445-23.623-0.36-35.5c0.076-10.632-0.571-21.179-0.709-31.794
	c-0.15-11.538-2.326-23.031-2.266-34.576c0.028-5.266-1.037-10.36-1.458-15.591c-0.468-5.821-0.787-11.364-1.621-17.179
	c-2.847-19.849-4.676-40.74-11.124-59.802c-0.559-1.652-1.221-3.249-1.97-4.795c-1.349-3.641-3.171-6.87-4.856-10.49
	c-4.268-9.169-8.46-18.404-15.396-25.973c-6.835-7.46-15.357-11.903-24.594-15.717c-10.534-4.35-21.248-6.214-32.325-8.688
	c-11.592-2.59-23.309-4.031-35.13-5.094c-11.622-1.045-23.354-2.967-35.024-3.026c-23.075-0.117-46.59-0.74-69.369,3.534
	c-10.875,2.041-21.637,4.374-32.39,6.984c-10.361,2.514-21.402,5.105-30.843,10.21c-8.858,4.79-16.625,12.247-21.874,20.833
	c-5.137,8.403-8.239,18.899-11.053,28.295c-2.533,8.457-5.649,19.447-2.346,28.128c-2.244,0.33-4.486,0.69-6.729,1.066
	c-4.725,0.792-9.631,1.913-12.418,6.187c-2.609,4-2.641,8.807-2.595,13.412c0.053,5.347,0.112,10.71,0.036,16.056
	c-0.08,5.574-0.16,11.104,4.286,15.196c3.796,3.494,8.553,4.242,13.496,4.59c6.575,0.463,12.942,1.114,19.562,0.994
	c12.773-0.231,25.562-1.21,38.335-1.172c6.243,0.019,12.365,1.131,18.646,1.136c6.001,0.005,11.78-0.27,17.743-0.745
	c10.926-0.872,19.126-5.92,21.578-17.207c1.461-6.724,0.717-13.844,0.743-20.666c0.019-4.779,0.067-9.772-2.91-13.781
	c-2.192-2.953-5.048-4.094-8.181-4.497c1.761-2.832,3.476-5.779,5.694-8.461c6.173-7.464,12.825-15.478,21.45-20.178
	c9.475-5.165,21.582-6.483,32.178-6.022c11.207,0.488,22.206,2.389,33.031,5.292c18.312,4.911,36.375,14.907,41.594,34.514
	c2.839,10.664,4.904,21.468,5.144,32.525c0.256,11.773-0.322,23.503-0.657,35.264c-0.349,12.26-1.191,24.474-1.623,36.728
	c-0.404,11.442,0.175,22.886-0.094,34.328c-0.285,12.138-0.336,24.437-1.307,36.537c-0.974,12.14-3.031,24.137-4.407,36.227
	c-0.543,4.777-1.345,10.287,0.014,15.002c0.336,1.164,0.851,2.237,1.478,3.24c-0.956,0.065-1.913,0.115-2.875,0.128
	c-4.934,0.067-9.624-0.576-14.525-0.805c-8.901-0.417-18.088-0.365-27.005-0.232c-7.411,0.11-14.338,2.655-17.67,9.722
	c-3.312,7.025-5.687,16.776-3.802,24.434c1.471,5.974,4.864,9.324,9.605,11.243c-0.397,1.932-0.882,3.867-1.031,5.841
	c-0.286,3.788-0.433,7.628-0.54,11.426c-0.24,8.54-0.162,17.101-0.244,25.644c-0.078,8.167-0.06,16.335-0.074,24.503
	c-0.007,3.936,0.049,7.878-0.062,11.813c-0.109,3.883,0.521,7.364,0.82,11.177c0.993,12.68-0.876,28.48,12.948,34.642
	c13.363,5.957,29.517,6.139,43.882,6.942c7.514,0.42,15.015,0.903,22.564,0.81c4.042-0.049,8.085-0.151,12.127-0.113
	c4.387,0.041,8.658,0.836,13.034,0.905c15.753,0.252,31.518-0.09,47.272,0.15c3.422,0.052,6.831-0.919,10.146-0.909
	c2.802,0.009,5.616,1.072,8.505,1.028c7.447-0.112,15.646-0.687,21.909-5.005c12.801-8.824,15.741-23.703,15.782-38.382
	c0.011-3.875-0.879-7.652-0.859-11.497c0.02-3.932,0.845-7.806,0.834-11.768c-0.024-9.236-0.048-18.471-0.048-27.707
	c0-8.06-0.637-15.963-0.859-23.947c-0.094-3.385-0.753-6.336-0.756-9.699c-0.001-0.822-0.065-1.616-0.184-2.387
	C460.943,377.592,462.985,369.771,462.32,362.237z M171.198,132.458c-0.287,2.979-1.145,6.695-3.853,8.439
	c-3.004,1.933-8.709,1.687-12.142,1.95c-9.431,0.721-18.669-0.631-28.025-0.969c-9.79-0.354-19.709,0.667-29.492,1.022
	c-9.965,0.361-19.652-0.023-29.562-0.838c-3.668-0.301-5.977-0.16-5.969-4.328c0.009-4.729,0.099-9.464,0.107-14.195
	c0.004-2.685-0.811-7.282,0.123-9.866c0.495-1.372,0.047-0.639,1.35-1.45c1.675-1.042,4.809-0.972,6.777-1.286
	c5.753-0.918,11.559-1.65,17.386-2.012c2.977,0.554,5.958,0.88,8.611,1.201c10.313,1.25,20.923,1.58,31.336,1.604
	c5.811,0.013,11.622,0.038,17.432,0.074c3.123,0.02,6.333,0.095,9.473-0.247c1.143,0.017,2.288-0.034,3.431-0.161
	c1.922-0.213,3.758-0.224,5.694-0.164c0.915,0.029,6.582-0.442,6.833-0.323c0.072,0.034,0.414,1.251,0.484,2.402
	c0.11,1.809-0.003,3.659,0.012,5.47C171.241,123.302,171.631,127.952,171.198,132.458z M301.439,71.591
	c-13.709-11.485-32.143-16.497-49.473-19.362c-19.989-3.306-43.379-4.391-61.334,6.803c-7.605,4.741-14.189,11.323-19.87,18.19
	c-2.846,3.439-5.494,6.682-7.567,10.642c-1.939,3.704-3.851,8.116-8.079,9.534c-3.887,1.303-8.707,0.656-12.744,0.665
	c-5.488,0.012-10.976,0.009-16.464,0.038c-5.421,0.029-10.857-0.146-16.279-0.45c-2.565-0.242-5.13-0.452-7.654-0.743
	c-3.195-0.368-6.377-0.538-9.55-0.554c-3.217-0.323-6.933-0.964-8.504-2.647c-1.583-1.696-0.492-9.241,0.137-11.421
	c2.639-9.14,5.433-18.206,9.033-27.035c3.61-8.855,10.172-16.255,18.372-21.155c8.291-4.953,18.594-7.12,27.886-9.424
	c20.502-5.083,41.192-9.475,62.374-10.257c10.894-0.403,21.844,0.035,32.747-0.093c10.713-0.126,21.157,1.35,31.803,2.317
	c10.92,0.992,21.87,1.789,32.645,3.905c5.072,0.996,10.093,2.227,15.138,3.35c5.377,1.197,10.769,1.714,15.988,3.571
	c8.443,3.004,17.658,6.383,24.189,12.733c4.004,3.894,7.447,8.714,10.322,13.775c-0.468,1.239-0.432,2.616,0.429,3.802
	c2.6,3.584,3.933,7.549,6.133,11.321c2.55,4.373,4.221,8.125,5.289,13.142c1.97,9.254,3.474,18.519,5.096,27.84
	c3.423,19.666,5.921,39.414,6.663,59.328c0.766,20.539,3.156,40.917,3.079,61.505c-0.041,10.803-0.764,21.774,0.068,32.549
	c0.801,10.367,1.825,21.247,1.374,31.634c-0.455,10.474-1.267,21.311-5.231,31.115c-1.507,3.728-4.451,4.742-8.255,5.41
	c-0.306,0.054-0.618,0.109-0.926,0.164c-3.128,0.131-6.244,0.358-9.331,0.773c-4.962,0.667-9.845,0.874-14.683,1.237
	c-2.632-0.31-5.287-0.455-7.963-0.53c-3.746-0.105-7.5-0.19-11.255-0.26c-0.598-0.092-1.199-0.168-1.795-0.275
	c-4.021-0.727-8.244-1.426-11.895-3.344c-1.177-0.618-3.159-1.571-3.873-2.756c-0.7-1.161-0.217-4.256-0.121-5.854
	c0.654-10.849,2.708-21.658,3.898-32.463c1.232-11.18,1.21-22.278,1.636-33.494c0.836-22.003,0.351-43.94,1.547-65.941
	c1.185-21.805,2.515-44.482,0.172-66.231c-1.007-9.346-3.094-19.61-6.435-28.409C314.902,85.614,308.493,77.5,301.439,71.591z
	 M260.755,393.462c-0.154-4.088-0.085-8.552-0.641-12.828c7.222,1.257,14.456,2.571,21.771,3.06
	c19.313,1.29,38.708,1.495,58.075,1.612c9.716,0.059,19.522,1.438,29.215,1.031c4.761-0.2,9.399-1.158,14.178-1.104
	c5.148,0.059,10.286,0.288,15.438,0.299c10.418,0.023,20.84-0.043,31.257,0.07c3.171,0.034,6.535,0.052,9.886-0.193
	c0.029,0.337,0.061,0.721,0.046,1.101c-0.058,1.473,0.03,2.766,0.278,4.239c0.438,2.603,0.285,4.935,0.379,7.597
	c0.09,2.536,0.724,4.893,0.727,7.433c0.002,1.724-0.003,3.448-0.006,5.172c-2.858-0.456-5.786-0.464-8.018-0.283
	c-7.484,0.607-12.525,4.339-18.208,8.886c-6.67,5.336-14.303,6.744-22.721,6.565c-8.271-0.175-14.683-4.222-20.995-9.153
	c-12.792-9.993-29.731-5.197-42.511,2.436c-3.536,2.112-6.302,4.283-10.366,5.127c-4.929,1.023-9.814,1.317-14.85,1.131
	c-3.593-0.133-7.79-0.906-10.819-2.999c-3.2-2.211-4.974-6.089-8.244-8.411c-5.675-4.029-15.087-5.164-21.435-2.072
	c-0.689,0.336-1.42,0.708-2.162,1.113C260.993,406.683,261.004,400.065,260.755,393.462z M432.798,494.416
	c-3.987,2.962-11.174,3.31-16.088,2.935c-2.763-0.211-5.299-1.068-8.109-0.827c-3.595,0.308-6.854,0.799-10.51,0.734
	c-14.534-0.258-29.096-0.049-43.632,0.029c-6.356,0.034-12.599-0.884-18.982-0.821c-8.03,0.079-15.823,0.161-23.81-0.507
	c-13.062-1.093-26.327-0.465-39.154-3.727c-2.241-0.57-5.243-1.115-7.171-2.549c-2.027-1.508-1.997-4.202-2.34-6.551
	c-0.859-5.889-0.328-12.03-1.285-17.894c-0.142-0.871-0.256-1.747-0.35-2.627c1.672,1.737,3.507,3.28,5.488,4.524
	c3.951,2.482,8.272,3.715,12.838,4.441c4.495,0.714,8.927,1.898,13.423,2.511c8.502,1.159,16.967-1.315,24.653-4.708
	c4.424-1.953,8.856-3.794,13.119-6.088c4.246-2.285,8.575-5.14,13.436-5.877c9.403-1.425,16.305,7.524,23.802,11.448
	c7.966,4.17,17.184,5.697,26.051,4.68c9.738-1.117,18.977-3.296,27.867-7.472c4.754-2.233,9.182-4.868,14.076-6.802
	c1.386-0.548,2.988-1.453,4.509-1.81c-0.011,0.669-0.002,1.34,0.056,2.017C441.673,470.841,443.24,486.659,432.798,494.416z
	 M436.368,448.142c-3.808,1.44-7.642,2.861-11.238,4.782c-8.077,4.315-15.561,8.083-24.664,9.837
	c-10.025,1.932-20.005,2.46-29.188-2.839c-6.768-3.905-12.184-9.167-20.014-11.223c-7.694-2.021-15.271,1.447-21.901,5.03
	c-7.483,4.045-15.682,8.892-24.079,10.522c-8.869,1.722-17.87,0.164-26.671-1.713c-4.718-1.006-8.036-3.134-11.566-6.214
	c-1.638-1.429-3.908-2.544-6.018-3.786c0.039-3.019,0.136-6.041,0.131-9.03c-0.012-6.922-0.031-13.844-0.074-20.766
	c1.545-0.844,3.125-1.62,4.71-2.394c4.028-1.967,10.023-1.576,13.759,1.025c3.52,2.45,5.154,6.633,8.852,8.926
	c3.461,2.146,7.671,3.413,11.672,3.955c8.022,1.086,19.298,1.015,26.643-2.835c8.349-4.376,15.282-10.042,25.086-10.912
	c5.188-0.46,9.615,0.248,13.778,3.492c3.424,2.669,6.665,5.386,10.529,7.425c7.63,4.027,16.358,4.85,24.842,4.047
	c8.932-0.846,15.544-4.282,22.344-9.929c3.347-2.779,6.697-5.553,11.282-5.697c2.202-0.069,4.491,0.221,6.766,0.587
	c-0.004,6.536-0.027,13.072,0.002,19.608c0.011,2.406,0.108,4.826,0.069,7.237C439.834,447.191,438.252,447.429,436.368,448.142z
	 M447.806,370.141c-1.766,1.571-5.258,1.514-7.49,1.924c-3.781,0.694-7.385,0.467-11.226,0.457
	c-8.719-0.024-17.438,0.039-26.156,0.059c-8.538,0.019-17.468-0.883-25.952,0.101c-7.921,0.918-15.37,0.623-23.318,0.245
	c-8.811-0.42-17.632-0.295-26.449-0.206c-8.074,0.081-16.104-0.725-24.196-0.729c-15.477-0.008-30.278-1.904-45.358-5.26
	c-2.675-0.595-4.448-0.62-4.921-3.48c-0.563-3.403,0.674-6.927,1.553-10.191c0.481-1.79,0.831-4.656,2.533-5.733
	c1.976-1.251,5.802-0.482,7.983-0.392c8.898,0.365,17.987-0.615,26.823,0.448c9.097,1.094,17.951-0.544,27.033-0.513
	c4.549,0.015,9.089,0.013,13.629-0.021c2.592,0.373,5.171,0.646,7.662,0.875c4.948,0.456,9.79,0.015,14.738,0.063
	c6.243,0.061,12.001-0.132,18.163-1.16c2.859-0.477,5.785-0.848,8.635-1.366c1.478-0.035,2.955-0.062,4.429-0.06
	c8.988,0.011,17.977,0.021,26.965,0.031c8.007,0.009,16.227-0.578,24.207-0.122c1.939,0.111,6.297,0.248,7.592,1.296
	c1.767,1.429,2.209,5.153,2.667,7.171C448.272,357.638,451.462,366.888,447.806,370.141z"/>
<path d="M126.839,310.974c30.311-11.982,31.853-50.605,23.117-77.145c-2.322-7.053-6.61-13.523-10.278-19.953
	c-4.011-7.032-6.846-14.533-11.011-21.517c-5.252-8.806-13.886-32.499-27.703-22.985c-5.305,3.653-9.123,11.83-12.06,17.392
	c-4.239,8.027-6.267,16.64-9.204,25.139c-2.734,7.912-5.563,16.015-7.501,24.15c-1.106,4.639-1.707,9.872-1.174,14.823
	c-1.036,5.763-1.651,11.583-1.696,17.4c-0.101,13.012,5.869,28.209,16.596,36.072C97.861,313.1,112.693,316.567,126.839,310.974z
	 M95.762,295.61c-9.529-5.691-14.718-17.359-14.797-28.241c-0.036-4.959,0.349-9.92,1.014-14.858
	c0.141-0.38,0.273-0.763,0.378-1.153c0.349-1.291,0.398-2.604,0.401-3.921c0.823-4.784,1.872-9.536,3.035-14.235
	c1.034-2.876,2.121-5.737,2.983-8.633c3.69-12.404,7.121-24.805,13.916-35.909c1.241-2.028,2.545-3.984,3.881-5.951
	c0.031-0.046,0.091-0.125,0.16-0.217c1.141,1.98,2.966,3.948,4.005,5.893c1.514,2.837,2.928,5.681,4.623,8.419
	c3.309,5.345,6.113,10.677,8.589,16.441c2.611,6.077,6.281,11.731,9.407,17.553c5.704,10.626,7.548,22.274,7.267,34.265
	c-0.278,11.897-3.645,23.338-13.817,30.583C117.389,302.354,105.239,301.27,95.762,295.61z"/>
<path d="M166.964,345.86c-1.182-6.264-3.193-12.456-4.077-18.768c-0.69-4.93-0.943-10.087-5.504-13.181
	c-10.34-7.016-22.314,10.571-28.335,16.777c-4.331,4.464-7.997,10.232-11.094,15.617c-1.717,2.986-3.067,6.487-3.945,9.802
	c-0.282,1.063-0.443,2.145-0.57,3.232c-3.377,6.447-6.05,13.291-7.41,20.137c-4.192,21.092,3.617,48.564,26.679,54.892
	c12.26,3.364,22.985-5.196,28.588-15.535c2.651-4.892,5.152-10.137,6.752-15.474c1.827-6.095,1.32-12.316,1.972-18.555
	c0.645-6.172,0.012-12.42-0.524-18.564C168.904,359.447,168.23,352.571,166.964,345.86z M157.054,389.979
	c-0.032,5.164-0.509,9.445-2.524,14.303c-2.831,6.827-8.384,20.475-17.691,19.1c-18.656-2.756-23.027-28.999-19.583-43.753
	c2.492-10.673,7.928-21.279,13.79-30.489c2.255-3.544,4.492-7.177,6.873-10.66c3.399-4.115,7.171-7.989,11.181-11.346
	c-0.172,0.144,0.51-0.371,1.256-0.933c0.108,1.419,0.498,3.021,0.678,4.159c0.791,5.019,2.099,9.961,3.095,14.942
	c2.024,10.118,3.014,20.648,3.641,30.93C158.055,380.88,157.083,385.368,157.054,389.979z"/>
<g>
</g>
<g>
</g>
<g>
</g>
<g>
</g>
<g>
</g>
<g>
</g>
<g>
</g>
<g>
</g>
<g>
</g>
<g>
</g>
<g>
</g>
<g>
</g>
<g>
</g>
<g>
</g>
<g>
</g>
</svg>
