<?xml version="1.0" encoding="iso-8859-1"?>
<!-- Generator: Adobe Illustrator 19.0.0, SVG Export Plug-In . SVG Version: 6.00 Build 0)  -->
<svg version="1.1" id="Capa_1" xmlns="http://www.w3.org/2000/svg" xmlns:xlink="http://www.w3.org/1999/xlink" x="0px" y="0px"
	 viewBox="0 0 512.002 512.002" style="enable-background:new 0 0 512.002 512.002;" xml:space="preserve">
<g>
	<path style="fill:#7CD15D;" d="M240.327,111.292c-15.083,10.463-31.368,19.123-43.3,33.443
		c-8.822,10.588-19.236,19.833-27.518,30.831c-6.829,9.069-13.038,18.413-16.599,29.276c-3.522,10.746-4.42,22.409-6.514,33.487
		c-4.525,23.933-1.798,49.097,3.219,72.707c1.866,8.78,2.404,17.685,5.027,26.365c2.906,9.617,7.1,18.768,10.773,28.1
		c5.559,14.127,12.282,28.004,19.461,41.374c10.128,18.86,22.815,34.528,38.097,49.45c22.521,21.989,53.107,40.913,84.726,44.966
		c27.124,3.477,58.906,2.362,76.179-22.381c10.086-14.448,8.287-35.289,7.521-52.064c-0.741-16.225-5.01-35.291-11.648-50.109
		c-8.059-17.99-18.731-34.668-26.943-52.582c-3.268-7.13-6.674-14.212-9.836-21.393c-6.356-14.434-9.074-28.101-5.758-43.658
		c7.622-35.757,27.715-76.498,12.526-113.093c-3.728-8.981-8.885-17.339-15.346-24.583c-7.331-8.219-18.503-12.131-28.757-15.497
		C284.717,99.065,259.965,101.526,240.327,111.292z"/>
	<path style="fill:#7CD15D;" d="M342.936,10.153c-11.193,7.292-22.013,13.211-27.172,26.323c-4.975,12.643-5.19,27.484-2.88,40.74
		c2.003,11.495,15.342,21.79,27.136,20.382c25.485-3.042,37.733-34.914,35.981-57.327c-0.688-8.806-3.464-19.157-9.651-25.806
		C360.736,8.432,349.612,5.803,342.936,10.153z"/>
	<path style="fill:#7CD15D;" d="M262.942,13.424c-15.794,14.751-22.033,36.56-10.849,55.88c6.175,10.667,19.478,16.695,29.426,7.44
		c13.066-12.156,17.329-36.402,9.407-52.707C285.881,13.655,275.783,6.822,262.942,13.424z"/>
	<path style="fill:#7CD15D;" d="M201.297,20.936c-20.659,9.743-22.252,40.533-11.689,57.504c5.537,8.896,20.583,14.584,30.019,8.42
		c13.156-8.595,13.905-32.487,9.487-46.036c-1.903-5.835-6.291-13.437-11.465-16.95C215.146,22.175,208.457,19.837,201.297,20.936z"
		/>
	<path style="fill:#7CD15D;" d="M149.052,71.74c-11.159,12.455-8.295,38.063,1.551,50.611c8.291,10.566,21.184,5.358,25.942-5.753
		c4.498-10.502-0.935-23.683-4.055-33.655C170.225,75.705,159.231,62.472,149.052,71.74z"/>
	<path style="fill:#7CD15D;" d="M117.509,128.197c-5.35,10.291-0.54,28.529,8.264,35.968c5.695,4.812,14.502,5.554,19.063-1.156
		C151.972,152.51,133.236,113.934,117.509,128.197z"/>
</g>
<path d="M399.128,421.63c-0.996-4.631-1.818-9.294-2.855-13.915c-0.971-4.327-2.742-8.001-4.3-12.109
	c-6.565-17.309-11.809-34.901-21.157-50.981c-4.287-7.375-8.528-14.778-13.003-22.032c-4.888-7.925-7.38-16.875-9.622-25.833
	c-4.69-18.733-2.035-39.579,3.095-58.007c5.156-18.519,9.742-37.829,11.58-57.002c1.696-17.708-0.438-37.482-11.476-52.077
	c-11.708-15.48-28.23-24.513-46.505-30.106c-18.54-5.675-37.132-5.421-55.463,1.118c-17.521,6.251-33.203,16.43-47.818,27.783
	c-14.526,11.283-27.535,26.324-37.911,41.486c-10.631,15.536-17.69,33.595-21.651,51.939c-8.438,39.066-5.856,80.829,5.104,119.181
	c2.555,8.939,5.881,18.047,10.088,26.342c4.279,8.437,7.111,17.619,11.362,26.139c4.474,8.965,9.865,17.397,15.393,25.739
	c5.282,7.97,10.268,16.324,16.487,23.614c5.873,6.884,12.59,13.241,18.762,19.877c6.145,6.608,13.119,12.294,20.624,17.301
	c15.998,10.674,32.775,19.115,51.066,25.159c17.393,5.747,34.632,8.063,52.937,6.031c18.269-2.028,35.526-10.374,44.293-27.329
	c2.051-3.967,4.347-8.874,5.8-13.708c2.741-6.859,4.559-14.286,5.219-21.521C400.007,439.613,401.078,430.691,399.128,421.63z
	 M386.629,442.488c-0.542,7.136-1.07,14.073-2.846,20.924c-1.164,1.755-2.869,3.392-3.888,5.119
	c-2.148,3.641-3.539,7.604-5.988,11.098c-4.342,6.195-11.455,10.886-18.485,13.58c3.707-6.736,8.194-13.264,11.109-20.394
	c2.706-6.619,4.105-13.952,6.373-20.759c2.135-6.407,5.363-13.068,2.809-19.833c-0.746-1.976-3.856-2.95-4.972-0.651
	c-5.289,10.89-8.073,23.449-11.033,35.124c-1.688,6.657-5.393,12.865-8.05,19.182c-0.846,2.012-1.692,4.005-2.232,6.11
	c-0.276-0.227-0.615-0.518-0.908-0.845c-0.68-0.762-1.429-1.418-2.238-2.046c-2.07-1.607-3.768-3.037-5.379-5.109
	c-3.416-4.394-6.888-8.712-10.412-13.023c-1.287-1.575-2.568-3.193-3.839-4.829c1.447-2.576,2.549-5.371,3.326-7.032
	c3.768-8.056,7.145-16.295,10.924-24.345c3.523-7.504,7.543-14.816,10.438-22.601c1.407-3.785,2.174-7.754,3.381-11.591
	c0.937-2.979,1.422-5.469,0.044-8.39c-0.999-2.118-3.863-2.029-5.376-0.694c-4.654,4.105-5.62,10.573-7.519,16.143
	c-2.695,7.906-6.81,15.25-10.264,22.834c-3.294,7.23-6.353,14.678-9.026,22.16c-0.624,1.747-1.307,3.55-1.938,5.386
	c-3.312-4.749-6.385-9.663-8.973-14.662c-4.667-9.014-9.801-17.347-13.567-26.678c0.636-0.595,1.157-1.067,1.354-1.25
	c2.447-2.282,4.515-4.77,6.538-7.435c4.966-6.54,9.515-13.323,13.397-20.561c3.412-6.36,7.345-12.632,11.578-18.48
	c3.174-4.386,7.409-10.104,5.35-15.829c-0.772-2.146-3.678-3.389-5.427-1.434c-3.963,4.43-7.167,10.103-10.444,15.065
	c-4.287,6.492-7.932,13.147-11.674,19.948c-3.798,6.902-8.293,13.595-12.715,20.109c-0.349,0.514-0.698,1.023-1.043,1.532
	c-3.523-9.338-7.682-18.433-10.86-27.901c-1.029-3.066-1.98-6.163-2.881-9.276c0.989-0.879,1.918-1.734,2.756-2.422
	c4.898-4.024,8.943-8.885,12.758-13.915c4.33-5.708,8.035-11.858,12.294-17.613c3.339-4.512,8.063-9.368,9.29-15.012
	c0.59-2.71-1.842-5.946-4.857-4.859c-5.159,1.86-7.001,6.754-10.118,10.879c-3.869,5.12-7.31,10.505-10.887,15.832
	c-3.5,5.213-7.07,10.33-10.931,15.283c-0.868,1.114-1.769,2.207-2.654,3.311c-1.604-6.073-3.101-12.177-4.669-18.233
	c-1.628-6.285-3.254-12.561-4.766-18.864c2.033-1.456,4.084-2.886,6.113-4.36c5.624-4.085,10.601-9.574,15.011-14.91
	c4.313-5.218,8.204-10.76,12.239-16.191c3.722-5.01,8.827-10.191,8.517-16.851c-0.215-4.611-6.023-4.996-7.642-1.036
	c-2.602,6.359-8.62,12.237-12.545,17.824c-4.562,6.494-9.43,12.609-14.711,18.531c-2.765,3.101-5.976,5.892-8.837,8.945
	c-0.735-3.336-1.427-6.682-2.054-10.046c-1.63-8.745-2.982-17.583-4.084-26.462c4.235-2.232,8.245-6.409,11.26-8.977
	c6.627-5.644,13.836-10.684,20.306-16.486c6.234-5.591,11.6-12.122,17.047-18.46c5.187-6.036,10.088-11.231,12.487-18.988
	c0.756-2.445-2.02-4.186-4.081-3.139c-5.991,3.043-10.392,9.569-14.628,14.633c-4.96,5.931-9.866,12.011-15.394,17.429
	c-5.477,5.367-11.655,9.975-17.236,15.238c-2.842,2.681-5.498,5.527-8.135,8.408c-0.58,0.633-1.465,1.768-2.468,2.97
	c-1.46-13.58-2.333-27.233-2.589-40.804c-0.064-3.382-0.121-6.766-0.165-10.151c3.877-2.285,7.67-5.463,10.956-8.211
	c5.434-4.544,11.06-9.107,16.223-13.949c4.862-4.56,9.717-9.167,14.845-13.431c2.636-2.193,5.523-4.099,7.817-6.676
	c2.244-2.521,3.765-5.432,5.586-8.235c2.046-3.151-1.935-6.755-5.001-5.005c-3.11,1.775-4.929,3.921-7.335,6.485
	c-2.571,2.74-5.696,4.845-8.504,7.322c-5.265,4.646-10.202,9.635-15.345,14.406c-5.177,4.803-10.295,9.578-15.37,14.495
	c-1.111,1.077-2.543,2.286-3.948,3.609c-0.026-7.635,0.056-15.27,0.347-22.895c0.552-14.451,2.918-28.925,3.138-43.347
	c0.015-0.974-1.297-1.046-1.609-0.218c-4.514,12.006-5.57,25.586-6.88,38.298c-0.922,8.952-1.427,17.946-1.773,26.944
	c-1.108-1.914-2.253-3.774-3.264-5.568c-3.872-6.865-8.642-13.055-13.203-19.462c-4.487-6.301-9.337-13.004-12.013-20.33
	c-1.271-3.48-1.927-8.05-5.812-9.54c-1.75-0.671-3.34,1.305-2.915,2.914c0.522,1.981,0.049,4.118,0.142,6.149
	c0.126,2.739,0.882,5.228,1.919,7.77c2.605,6.394,6.713,12.127,10.809,17.633c4.336,5.829,8.743,11.516,12.697,17.617
	c2.01,3.101,4.06,6.178,6.195,9.194c1.463,2.066,3.556,4.226,5.032,6.412c-0.004,0.121-0.007,0.242-0.01,0.363
	c-0.445,16.222-0.028,32.432,1.263,48.583c-2.827-3.262-5.609-6.566-8.527-9.745c-6.896-7.513-15.165-13.822-22.662-20.734
	c-7.494-6.909-14.158-14.931-19.69-23.508c-4.255-6.597-5.96-16.596-13.6-20.284c-2.118-1.022-5.092,0.688-4.255,3.27
	c2.659,8.203,4.896,16.64,9.866,23.798c5.401,7.781,11.361,15.684,18.351,22.101c7.289,6.692,15.194,12.671,22.507,19.32
	c3.879,3.526,7.391,7.429,11.286,10.929c1.683,1.512,3.492,3.203,5.427,4.405c0.609,0.378,1.449,0.702,2.281,1.056
	c0.639,6.147,1.396,12.285,2.29,18.408c0.899,6.158,1.964,12.32,3.144,18.477c-0.017-0.01-0.032-0.02-0.049-0.03
	c-4.558-2.838-9.254-5.247-14.067-7.63c-9.407-4.657-19.022-8.392-28.09-13.77c-8.567-5.081-17.468-10.62-25.077-17.079
	c-3.488-2.96-6.746-6.845-9.846-10.218c-2.921-3.18-4.275-6.561-8.582-8.014c-2.311-0.78-4.734,1.704-3.995,3.993
	c1.329,4.118,2.421,7.95,5.32,11.273c3.01,3.449,6.382,7.253,9.827,10.236c7.71,6.675,16.885,12.343,25.63,17.551
	c8.98,5.348,18.271,9.065,27.815,13.203c6.998,3.034,14.796,7.992,22.713,8.482c2.832,13.539,6.22,27.014,9.908,40.284
	c-2.627-2.161-5.55-4.101-8.422-5.822c-4.306-2.579-8.74-3.185-13.259-5.059c-3.819-1.584-7.417-3.135-11.354-4.453
	c-8.901-2.981-16.98-8.119-25.93-11.045c-3.883-1.27-7.171-2.614-10.855-4.41c-3.615-1.763-7.492-3.009-11.401-1.475
	c-2.24,0.879-3.257,3.532-1.435,5.427c4.745,4.934,12.915,8.147,19.357,10.01c8.667,2.506,16.497,7.105,24.917,10.245
	c4.124,1.539,8.301,2.637,12.372,4.339c3.996,1.67,8.223,1.96,12.172,3.817c3.998,1.88,7.815,4.151,11.636,6.358
	c1.859,1.074,3.45,1.667,5.07,2.151c3.486,11.937,8.757,23.24,12.749,35.002c0.109,0.322,0.231,0.632,0.342,0.952
	c-2.688-1.609-5.153-3.299-8.282-4.332c-8.499-2.805-17.126-4.776-25.377-8.313c-7.634-3.273-15.957-5.007-23.781-7.914
	c-7.142-2.655-16.786-7.295-24.572-5.91c-2.076,0.369-2.819,3.442-1.267,4.791c3.276,2.847,5.238,4.579,9.596,5.943
	c5.247,1.642,10.422,3.335,15.592,5.218c8.517,3.102,17.189,5.257,25.716,8.276c8.734,3.092,18.189,4.064,26.784,7.387
	c3.045,1.177,5.333,1.656,8.313,1.989c3.303,7.919,7.233,15.327,11.335,23.109c2.876,5.455,6.008,10.759,9.362,15.921
	c-2.171-1.221-4.377-2.382-6.578-3.516c-9.247-4.765-18.482-9.324-28.052-13.409c-8.625-3.681-16.703-8.51-25.441-11.896
	c-7.799-3.021-17.45-7.342-25.976-6.383c-2.909,0.327-3.549,4.058-0.694,5.114c4.551,1.683,8.564,3.932,12.891,6.069
	c3.905,1.928,8.057,3.167,12.088,4.785c8.525,3.423,16.535,8.148,25.018,11.754c8.659,3.681,17.097,7.73,25.551,11.856
	c6.877,3.357,13.227,7.384,20.629,8.982c0.896,1.169,1.801,2.332,2.721,3.484c4.007,5.013,7.784,10.364,11.986,15.202
	c0.719,0.827,1.522,1.531,2.349,2.199c-1.39,0.076-2.779,0.163-4.166,0.283c-7.935,0.689-16.558-0.134-24.305-2.063
	c-16.48-4.104-33.612-10.788-48.096-19.716c-6.88-4.24-13.878-8.716-20.213-13.746c-6.632-5.266-11.779-12.02-17.656-18.045
	c-5.962-6.113-11.658-11.727-16.454-18.855c-5.143-7.646-10.356-15.266-15.246-23.077c-4.767-7.615-8.982-15.535-12.725-23.703
	c-1.767-3.856-3.038-7.859-4.652-11.768c-1.655-4.009-3.847-7.719-5.435-11.764c-13.216-33.677-18.536-71.195-15.115-107.244
	c1.657-17.464,5.498-34.936,12.934-50.895c7.487-16.071,18.354-29.198,30.278-42.144c6.02-6.535,12.53-12.219,19.816-17.309
	c6.786-4.741,13.779-10.055,21.257-13.633c14.844-7.104,31.25-13.599,48.068-11.915c16.208,1.623,36.022,8.212,47.676,19.983
	c5.831,5.89,10.693,11.676,13.458,19.618c2.789,8.01,2.676,15.568,2.85,23.926c0.186,8.971-2.013,17.495-3.209,26.333
	c-1.182,8.742-3.679,17.157-5.665,25.749c-3.99,17.262-8.357,34.699-8.012,52.569c0.323,16.748,4.805,35.18,13.272,49.736
	c8.006,13.766,16.979,26.794,22.925,41.643c3.178,7.936,6.158,15.903,9.249,23.86c3.133,8.061,6.138,15.768,7.861,24.275
	c0.76,3.749,2.065,7.479,2.364,11.294C387.084,433.881,386.955,438.203,386.629,442.488z"/>
<path d="M315.483,94.723c7.125,7.883,20.526,12.293,30.59,8.715c9.695-3.447,19.309-9.424,23.547-19.193
	c5.12-11.798,10.888-24.488,11.257-37.526c0.328-11.576-1.135-23.548-7.861-33.304c-6.126-8.884-16.177-15.605-27.323-12.75
	c-13.101,3.355-21.576,15.847-29.382,25.892c-3.831,4.929-6.938,11.912-8.77,17.896c-0.927,3.029-1.287,6.25-1.652,9.405
	c-0.438,2.474-0.711,4.961-0.781,7.431c-0.025,0.863-0.026,1.739-0.013,2.621c-0.272,0.854-0.216,1.6,0.07,2.209
	C305.669,76.31,308.712,87.231,315.483,94.723z M317.537,47.3c0.331-0.79,0.692-1.576,1.124-2.354
	c2.302-4.153,3.971-8.63,6.994-12.327c1.661-2.032,3.273-4.123,4.944-6.161c1.1-1.089,2.236-2.15,3.411-3.187
	c3.831-3.38,8.871-8.89,13.947-10.042c0.428-0.097,0.736-0.298,0.947-0.551c2.387-0.437,4.841-0.215,7.279,1.02
	c7.515,3.808,11.751,13.082,12.876,21.025c1.423,10.05,0.213,19.747-3.294,29.214c-2.934,7.917-6.063,17.54-13.031,22.788
	c-2.959,2.228-6.322,4.081-9.766,5.433c-2.184,0.857-4.132,1.078-6.04,0.9c1.463-3.956,2.565-8.092,3.595-12.224
	c2.017-0.924,3.862-2.43,5.48-3.767c1.565-1.294,2.961-2.768,4.718-3.792c2.206-1.285,4.112-1.609,5.248-4.117
	c0.61-1.346,0.57-2.804-0.504-3.914c-2.884-2.978-8.249,1.063-12.048,4.271c1.052-3.76,2.154-7.506,3.193-11.269
	c5.358-0.686,11.299-4.669,14.598-8.215c1.91-2.052,0.447-4.968-2.158-5.214c-4.015-0.38-6.641,3.51-10.141,5.149
	c1.059-3.612,2.066-7.356,1.78-10.966c-0.235-2.969-4.384-4.649-5.996-1.626c-1.191,2.234-2.196,4.554-3.077,6.927
	c-1.096-2.79-1.859-6.067-3.606-8.461c-1.48-2.028-4.713-2.519-6.091-0.002c-1.641,2.996,0.43,6.478,1.756,9.206
	c0.706,1.451,1.317,2.921,2.049,4.3c0.701,2.063,1.52,4.038,2.669,5.611c-1.042,4.079-1.968,8.19-3.027,12.203
	c-0.049,0.185-0.091,0.371-0.139,0.556c-0.202-0.756-0.424-1.498-0.663-2.229c-0.275-0.989-0.528-1.978-0.726-2.969
	c-0.814-4.083-1.685-8.803-5.618-11.029c-2.468-1.396-6.211,0.959-5.124,3.937c2.141,5.855,4.249,11.377,5.897,17.384
	c0.686,2.5,1.649,5.47,3.604,7.267c-0.678,3.761-1.296,7.528-1.971,11.289c-0.354-0.133-0.711-0.269-1.076-0.41
	c-8.719-3.366-12.082-13.002-13.616-21.547C314.64,62.197,315.287,54.462,317.537,47.3z"/>
<path d="M244.666,61.439c1.48,8.479,5.795,15.609,13.216,20.446c8.521,5.554,19.159,3.736,27.181-1.949
	c7.003-4.962,11.307-12.97,12.654-21.35c0.765-4.76,1.422-9.74,1.397-14.559c-0.025-4.833,0.637-9.821,0.006-14.623
	c-0.565-4.301-2.667-8.433-4.294-12.432c-1.712-4.206-4.204-8.278-8.475-10.262c-3.24-1.505-7.955-2.778-11.524-2.793
	c-3.677-0.015-9.647,0.557-12.513,2.973c-1.531,1.291-1.656,1.064-3.59,2.405c-1.991,1.38-2.932,3.391-4.24,5.34
	c-1.52,2.265-3.612,4.154-4.933,6.559c-1.108,2.018-1.439,4.248-2.038,6.432c-1.445,5.26-3.577,10.26-4.507,15.682
	c-0.963,5.618,0.421,11.54,1.299,17.115C244.366,60.804,244.499,61.136,244.666,61.439z M257.075,34.59
	c0.723-2.024,1.24-4.138,1.959-6.143c0.846-2.361,2.269-3.818,3.77-5.808c1.881-2.493,3.272-4.954,6.236-6.327
	c2.96-1.372,6.538-0.754,9.507,0.045c4.879,1.313,5.389,4.252,7.185,8.686c3.075,7.589,2.676,16.774,1.549,24.857
	c-1.037,7.441-1.699,15.009-7.973,20.117c-1.74,1.416-3.885,2.69-6.154,3.451c-0.067-1.036-0.137-2.066-0.121-3.068
	c0.034-2.069,0.028-4.121-0.003-6.174c0.657-0.804,1.314-1.639,2.157-2.354c2.443-2.074,5.63-3.858,6.446-7.123
	c0.583-2.331-1.785-3.813-3.781-2.908c-1.918,0.87-3.461,2.558-5.031,4.037c-0.031-2.29-0.003-4.566,0.045-6.842
	c1.587-0.668,2.827-2.044,4.04-3.295c1.376-1.419,3.432-2.806,3.86-4.849c0.436-2.087-1.908-4.551-3.981-3.063
	c-1.453,1.042-2.538,2.457-3.701,3.79c0.02-0.569,0.039-1.134,0.058-1.705c0.136-4.053,1.547-10.06-0.474-13.712
	c-0.209-0.378-0.805-0.478-1.103-0.142c-2.478,2.792-2.672,5.554-3.427,9.185c-0.189,0.909-0.363,1.837-0.536,2.766
	c-0.511-0.861-1.104-1.644-1.726-2.252c-1.815-1.773-4.396,0.064-3.999,2.326c0.44,2.505,2.229,4.75,3.374,6.996
	c0.321,0.63,0.696,1.243,1.121,1.808c-0.081,0.952-0.159,1.905-0.197,2.844c-0.054,1.361-0.082,2.725-0.113,4.09
	c-1.601-1.783-3.391-3.438-4.981-5.12c-2.677-2.641-6.733,1.419-4.125,4.123c3.676,3.701,5.829,8.77,8.904,12.935
	c-0.046,2.619-0.107,5.236-0.234,7.844c-0.241-0.09-0.481-0.183-0.717-0.296c-3.254-1.559-6.74-4.986-8.433-8.17
	c-2.166-4.076-3.001-9.693-3.005-15.247C254.282,44.731,255.274,39.633,257.075,34.59z"/>
<path d="M181.976,76.662c6.616,15.341,23.035,27.874,39.105,16.927c19.701-13.42,17.941-37.439,11.372-57.752
	c-2.534-7.837-6.529-16.219-14.257-20.07c-8.15-4.061-20.767-2.106-27.092,4.597c-3.567,3.781-6.081,9.538-8.234,14.213
	c-1.114,2.419-1.92,4.569-2.106,7.262c-0.202,2.937-1.013,5.269-1.561,8.135c-0.246,1.29-0.277,2.58-0.269,3.873
	c-0.224,2.063-0.324,4.135-0.3,6.197c-0.276,1.967-0.556,3.771-0.199,5.881C178.995,69.242,179.537,74.088,181.976,76.662z
	 M189.363,57.591c0.177-2.542-0.002-4.784,0.629-7.261c1.106-4.34,1.194-8.678,3.392-12.63c1.637-2.944,3.713-7.698,6.455-9.718
	c2.997-2.208,9.488-3.069,12.842-1.479c3.196,1.515,5.141,5.191,6.514,8.268c3.588,8.043,5.957,17.818,5.982,26.599
	c0.027,9.417-3.554,17.893-11.537,23.091c-0.63,0.41-1.269,0.731-1.913,0.987c-0.592-2.486-0.897-6.07-1.088-8.905
	c1.097-0.923,2.051-2.062,2.897-3.08c1.261-1.518,2.338-3.221,3.808-4.558c1.119-1.017,2.319-1.694,3.276-2.891
	c2.473-3.095-1.397-7.237-4.433-4.436c-1.449,1.338-3.094,2.387-4.439,3.842c-0.386,0.417-1.072,1.477-1.844,2.581
	c-0.249-2.385-0.503-4.77-0.753-7.155c3.001-1.347,4.829-6.25,7.273-8.098c2.864-2.166,0.458-6.684-2.878-4.927
	c-2.055,1.082-3.339,3.288-4.653,5.132c-0.121,0.17-0.289,0.372-0.474,0.592c-0.378-3.969-0.718-7.941-0.947-11.922
	c-0.145-2.514-3.802-2.533-3.92-0.001c-0.138,2.961-0.192,5.923-0.191,8.885c-0.883-1.187-1.759-2.57-2.908-3.481
	c-1.681-1.333-3.831-0.858-4.597,1.212c-1.293,3.497,1.749,6.72,5.287,8.007c0.715,1.094,1.463,2.158,2.381,3.036
	c0.102,2.87,0.241,5.739,0.41,8.607c-0.285-0.23-0.569-0.462-0.849-0.705c-0.149-0.206-0.283-0.384-0.396-0.517
	c-1.511-1.779-3.153-3.225-5.062-4.559c-3.099-2.166-6.573,2.576-3.978,5.153c0.917,0.91,1.961,1.919,3.097,2.874
	c2.389,2.858,4.701,6.739,7.862,7.856c0.117,2.017,0.201,4.972,0.661,7.835c-5.371-1.317-10.34-6.231-12.889-10.956
	c-2.148-3.98-3.322-8.237-3.799-12.589C188.789,60.719,189.257,59.122,189.363,57.591z"/>
<path d="M141.731,115.652c0.975,2.796,2.304,5.468,4.212,7.938c4.158,5.383,9.689,10.067,16.904,9.257
	c6.885-0.774,13.578-6.683,16.962-12.492c3.905-6.703,3.464-15.599,2.394-23.028c-1.141-7.917-4.841-16.38-9.753-22.677
	c-3.97-5.089-9.612-10.476-16.306-11.246c-6.745-0.776-12.781,4.542-16.323,9.878c-4.488,6.76-5.281,17.529-4.099,25.307
	C136.507,103.745,138.296,110.703,141.731,115.652z M147.695,82.819c0.849-2.919,2.116-4.508,4.368-6.586
	c2.426-2.239,3.743-1.898,6.386,0.056c5.287,3.91,8.538,9.825,10.777,15.867c2.182,5.886,3.71,14.121,1.893,20.316
	c-0.625,2.13-2.1,4.536-3.992,6.411c-0.722-2.405-1.369-4.828-1.994-7.257c1.581-1.721,2.289-4.398,2.969-6.567
	c0.4-1.278,1.24-3.367,0.684-4.811c0.132-0.966-0.893-1.563-1.78-1.426c-2.109-0.428-3.289,2.323-4.016,4.425
	c-0.578-2.192-1.189-4.376-1.863-6.543c1.566-2.138,1.844-6.057,1.787-8.056c0-0.002-0.001-0.003-0.001-0.005
	c0.006-1.336,0.234-2.83-0.869-3.84c-1.168-1.07-2.613-0.772-3.516,0.067l-0.068-0.068c-0.785,0.719-0.91,1.725-0.909,2.73
	c-0.293-0.224-0.677-0.344-1.023-0.37c-0.238-0.017-0.476-0.035-0.715-0.052c-0.947-0.069-1.45,0.667-1.466,1.435
	c-1.993-1.16-3.836,1.844-2.388,3.516c1.359,1.569,2.859,4.697,5.008,5.755c0.117,0.634,0.204,1.092,0.233,1.216
	c0.486,2.096,1.015,4.18,1.539,6.265c-0.09-0.062-0.181-0.125-0.27-0.188c-0.386-0.324-0.775-0.646-1.184-0.965
	c-2.321-1.813-5.398,1.024-3.31,3.308c1.564,1.711,3.634,3.5,5.578,4.78c0.225,0.148,0.455,0.276,0.688,0.385
	c0.395,3.135,0.679,6.503,1.808,9.31c-1.678,0.379-3.399,0.126-4.99-1.089c-3.283-2.505-5.607-5.886-7.293-9.582
	c-0.526-2.459-0.94-4.905-1.743-7.349C145.625,96.613,145.547,90.207,147.695,82.819z"/>
<path d="M149.218,164.218c2.826-5.994,0.303-11.943-2.149-17.561c-2.743-6.285-5.73-12.56-10.009-17.98
	c-3.431-4.345-9.005-9.201-14.95-8.614c-5.631,0.556-8.548,5.846-9.61,10.873c-2.296,10.881,0.795,27.771,10.072,35.815
	c3.808,4.08,8.135,7.062,13.991,6.322C141.93,172.395,146.885,169.166,149.218,164.218z M141.17,159.827
	c-1.699-2.191-3.566-4.265-5.257-6.446c-2.523-3.255-4.403-6.892-6.736-10.263c-0.458-0.662-1.683-0.687-1.872,0.244
	c-0.749,3.709,1.325,8.06,2.925,11.31c1.59,3.229,3.569,6.734,5.782,9.843c-0.437,0.058-0.898,0.098-1.402,0.109
	c-0.827,0.018-1.639-0.17-2.427-0.499c-0.577-1.066-1.395-2.086-2.051-2.966c-3.346-4.484-6.071-8.93-7.514-14.401
	c-0.981-3.72-2.806-12.265-0.085-15.777c0.882-1.138,0.381-1.118,1.923-0.747c0.993,0.239,2.293,1.587,3.056,2.283
	c2.16,1.97,3.775,4.33,5.322,6.789C135.19,143.052,141.946,153.589,141.17,159.827z"/>
<g>
</g>
<g>
</g>
<g>
</g>
<g>
</g>
<g>
</g>
<g>
</g>
<g>
</g>
<g>
</g>
<g>
</g>
<g>
</g>
<g>
</g>
<g>
</g>
<g>
</g>
<g>
</g>
<g>
</g>
</svg>
