<?xml version="1.0" encoding="iso-8859-1"?>
<!-- Generator: Adobe Illustrator 19.0.0, SVG Export Plug-In . SVG Version: 6.00 Build 0)  -->
<svg version="1.1" id="Capa_1" xmlns="http://www.w3.org/2000/svg" xmlns:xlink="http://www.w3.org/1999/xlink" x="0px" y="0px"
	 viewBox="0 0 512.006 512.006" style="enable-background:new 0 0 512.006 512.006;" xml:space="preserve">
<path style="fill:#7CD15D;" d="M184.201,23.61c-2.752,2.076-5.499,4.527-8.916,4.985c-2.333,0.313-4.667-0.358-6.989-0.741
	c-13.968-2.301-27.938,6.221-36.202,17.715c-8.264,11.493-11.971,25.55-15.516,39.255c-4.289,2.647-7.819-4.087-11.155-7.864
	c-6.142-6.955-18.522-3.756-23.914,3.795c-5.392,7.551-5.783,17.458-5.975,26.735c-21.859,0.515-36.066,22.482-46.265,41.822
	c-3.572,6.775-7.241,13.945-6.997,21.6c0.176,5.531,2.401,10.807,2.936,16.315c0.535,5.508-1.357,12.004-6.52,13.993
	c3.33,1.95,5.626,5.567,5.972,9.41c-5.887,1.714-11.054,5.776-14.111,11.09c3.71,1.421,7.046,3.805,9.592,6.854
	c-7.001,6.078-11.748,14.694-13.145,23.859c2.979-1.869,6.868,1.772,6.813,5.288s-2.374,6.518-4.177,9.537
	c-1.802,3.02-3.131,6.955-1.253,9.928c1.417,2.242,4.2,3.165,6.155,4.958c9.483,8.695-7.094,24.729-2.08,36.578
	c2.48,5.86,9.27,8.27,14.644,11.676c5.374,3.407,9.928,10.918,5.786,15.749c-1.254,1.462-3.086,2.32-4.4,3.728
	c-5.488,5.879,1.516,15.278,8.874,18.524c7.358,3.246,16.693,5.605,19.152,13.262c2.735,8.515-5.353,18.149-1.604,26.269
	c4.871,10.549,21.857,5.564,31.256,12.394c6.682,4.855,7.688,14.185,9.029,22.335c1.341,8.15,5.045,17.587,13.164,19.106
	c6.281,1.175,12.498-3.11,18.858-2.496c8.223,0.793,13.697,11.37,9.595,18.54c11.353-4.454,21.755,7.731,33.003,12.444
	c8.923,3.739,16.269,1.36,25.194,0.358c8.667-0.973,16.762,5.118,24.403,8.863c17.13,8.395,38.17,10.793,55.137,2.075
	c3.397-1.745,6.681-3.938,10.448-4.567c6.249-1.044,12.378,2.404,18.709,2.655c11.367,0.45,21.429-11.563,18.993-22.674
	c14.446,0.399,29.102,0.777,43.13-2.693c14.029-3.47,27.598-11.328,34.755-23.883c1.408-2.47,2.572-5.118,4.437-7.264
	c4.141-4.766,10.816-6.168,16.649-8.583c18.678-7.734,29.758-26.686,39.499-44.4c17.39-31.624,35.202-64.686,36.857-100.738
	c0.433-9.427-0.247-19.013,1.99-28.181c1.28-5.247,3.512-10.345,3.618-15.745c0.24-12.286-10.41-22.034-21.315-27.699
	c-3.087-1.603-6.715-3.656-6.938-7.128c-0.357-5.564,8.456-8.943,7.241-14.384c-1.012-4.532-6.563-5.793-7.931-10.452
	c-1.195-4.071,0.126-8.989,1.714-12.762c2.542-6.04,6.092-12.554,3.975-18.756c-2.185-6.402-9.316-9.335-15.272-12.541
	c-5.957-3.206-12.08-9.314-9.969-15.742c1.029-3.133,3.779-5.316,5.995-7.759s4.049-5.911,2.737-8.936
	c-0.806-1.859-2.609-3.059-4.347-4.101c-8.465-5.073-17.657-8.932-27.206-11.423c-0.811-0.212-1.708-0.472-2.14-1.191
	c-0.386-0.643-0.278-1.459-0.101-2.188c1.525-6.294,7.032-11.143,8.138-17.524c1.203-6.94-3.334-13.86-9.292-17.616
	c-5.958-3.755-13.106-5.013-20.05-6.186c-4.805-0.812-10.33-2.139-12.4-6.551c-0.992-2.114-0.955-4.545-0.942-6.88
	c0.036-6.682-0.514-13.956-4.973-18.933c-5.851-6.532-15.892-6.55-24.648-6.054c-8.368,0.474-17.455,1.252-23.629,6.92
	c-1.03,0.945-2.05,2.062-3.427,2.305c-4.59,0.81-5.511-7.774-10.104-8.562c-5.444-0.935-7.857,9.799-13.177,8.312
	c-0.85-0.238-1.572-0.786-2.281-1.312c-8.647-6.41-18.595-11.056-29.06-13.572c-0.586-0.141-1.203-0.275-1.785-0.117
	c-0.863,0.235-1.426,1.04-1.914,1.79c-3.864,5.929-7.729,11.858-11.593,17.787c-2.05-8.932-13.153-14.482-21.528-10.76
	c-6.238,2.772-9.769,7.548-17.033,4.564c-4.666-1.917-7.302-4.486-12.694-4.975C206.092,12,193.371,16.693,184.201,23.61z"/>
<path style="fill:#FFC655;" d="M234.075,85.336c-3.096,2.185-6.399,4.219-8.738,7.201c-2.888,3.681-4,8.399-5.33,12.885
	c-5.633,19.001-16.551,36.405-31.207,49.744c-2.349,2.138-4.876,4.29-6.065,7.235c-0.838,2.074-0.931,4.36-1.093,6.591
	c-0.74,10.177-3.14,20.232-7.076,29.646c-1.155,2.762-2.495,5.545-4.706,7.564c-1.862,1.701-4.245,2.764-6.051,4.524
	c-3.865,3.764-4.274,9.717-4.673,15.097c-1.18,15.937-4.367,31.725-9.461,46.872c24.604-8.879,51.039-12.65,77.144-11.008
	c3.135,0.197,6.835,0.849,8.148,3.702c0.771,1.675,0.443,3.628,0.063,5.432c-3.068,14.566-8.648,28.599-16.42,41.295
	c-2.311,3.775-4.862,7.547-5.773,11.879c-0.847,4.028-0.202,8.197,0.273,12.286c4.635,39.921-8.174,81.559-34.443,111.973
	c1.183,2.294,4.478,2.099,7.004,1.568c10.584-2.225,21.167-4.449,31.751-6.674c2.04-0.429,4.155-0.891,5.816-2.15
	c2.387-1.809,3.366-4.869,4.45-7.661c5.433-13.993,16.903-25.522,30.868-31.028c2.621-1.033,5.43-1.932,7.386-3.96
	c3.474-3.602,3.054-9.286,2.875-14.287c-0.845-23.669,9.569-47.495,27.515-62.951c4.181-3.601,8.834-6.872,11.74-11.563
	c7.663-12.368,1.284-31.195,11.921-41.121c3.107-2.9,7.389-4.632,9.62-8.249c1.405-2.278,1.801-5.016,2.166-7.667
	c2.594-18.811,5.188-37.622,7.781-56.433c-24.079,11.988-52.137,15.803-78.543,10.682c-1.744-0.338-3.645-0.818-4.671-2.268
	c-0.951-1.345-0.87-3.143-0.684-4.78c1.261-11.069,5.634-21.766,12.488-30.548c4.457-5.71,10.148-11.053,11.429-18.183
	c1.31-7.296-2.363-14.438-4.004-21.666c-3.473-15.301,2.214-30.97,4.917-46.426c1.494-8.544,2.75-43.658-13.492-35.835
	c-6.353,3.06-9.812,14.361-13.909,19.801C247.753,73.945,241.328,80.219,234.075,85.336z"/>
<path d="M505.241,230.536c-4.542-5.632-9.981-9.523-15.855-13.47c-2.115-1.422-4.469-4.57-7.097-5.713
	c3.865-3.691,7.363-8.214,7.713-13.032c0.488-6.716-6.594-12.524-11.689-15.77c-0.268-0.171-0.531-0.334-0.798-0.503
	c1.117-2.377,2.453-4.785,3.15-7.265c0.931-3.311,1.2-6.591,2.393-9.875c2.101-5.782,5.052-12.045,1.044-17.665
	c-1.89-2.651-4.707-4.231-7.397-5.92c-3.032-1.903-5.567-4.258-8.357-6.51c-2.085-1.682-4.822-3.81-7.704-5.16
	c0.79-1.239,1.508-2.469,2.162-3.579c2.971-5.038,9.873-13.475,6.99-19.709c-2.741-5.926-12.19-8.694-17.341-11.877
	c-4.22-2.607-10.002-5.391-15.505-6.424c1.195-2.654,2.262-5.318,3.124-7.89c1.923-5.737,4.729-13.493,2.819-19.525
	c-2.002-6.323-9.343-8.956-14.924-11.332c-6.87-2.926-15.287-3.679-22.582-5.258c-0.435-0.094-0.892-0.16-1.337-0.241
	c0.306-6.625-0.77-13.514-2.81-19.572c-2.066-6.137-6.013-17.608-13.041-19.642c-9.123-2.641-17.506,0.043-26.546,1.277
	c-6.966,0.951-15.542,2.708-20.789,7.786c-2.464-2.674-5.392-5.425-8.465-6.662c-6.183-2.489-12.099,1.608-16.906,6.419
	c-5.746-5.413-13.002-8.114-20.995-9.902c-4.425-0.99-9.883-4.454-14.489-3.283c-4.992,1.269-6.796,6.866-8.629,11.007
	c-0.511,1.154-0.973,2.317-1.397,3.486c-1.721-4.156-4.297-7.194-9.91-7.263c-7.214-0.088-14.89,3.168-21.471,6.443
	c-3.653-4.201-12.712-5.185-17.425-6.026c-3.852-0.686-7.319,0.025-11.174,0.221c-4.283,0.218-7.456,0.746-11.568,2.107
	c-6.268,2.074-12.436,4.082-17.397,8.632c-1.52,1.395-3.328,3-4.845,4.798c-2.474-4.073-6.09-6.202-11.199-4.805
	c-6.829,1.868-13.739,4.551-19.805,8.246c-5.341,3.253-11.037,8.474-14.639,13.588c-4.126,5.856-8.435,11.444-11.245,18.098
	c-2.615,6.192-3.939,13.055-4.539,19.741c-0.064,0.718-0.115,1.443-0.144,2.172c-5.841-5.381-11.793-11.078-18.905-14.725
	c-7.269-3.728-11.926,2.374-15.218,8.13c-4.837,8.454-8.234,17.579-9.295,26.929c-4.555,0.409-8.165,3.417-12.415,6.001
	c-5.564,3.384-10.953,7.552-15.628,12.107c-9.669,9.422-15.606,21.42-20.831,33.647c-3.436,8.038-11.542,26.427,0.031,31.969
	c0.188,0.09,0.393,0.155,0.586,0.239c-0.299,0.389-0.572,0.763-0.811,1.101c-3.164,4.465-7.283,9.14-8.605,14.5
	c-0.391,1.584-0.029,3.394,1.2,4.54c0.606,0.565,1.335,1.201,2.138,1.831c-0.287,0.182-0.581,0.357-0.864,0.543
	c-3.809,2.501-10.961,6.936-10.248,12.208c0.518,3.83,4.47,8.83,7.916,11.469c-1.668,1.39-3.029,3.213-4.329,4.961
	c-1.472,1.978-2.715,4.156-4.251,6.084c-1.333,1.675-2.926,3.003-3.456,5.156c-0.875,3.548,1.349,5.174,3.877,7.071
	c1.609,1.208,3.149,2.521,4.796,3.562c-4.066,3.777-7.866,8.49-8.231,13.523c-0.488,6.716,6.594,12.524,11.689,15.77
	c0.268,0.171,0.531,0.334,0.798,0.503c-1.117,2.377-2.453,4.785-3.15,7.265c-0.931,3.311-1.2,6.591-2.393,9.875
	c-2.101,5.782-5.052,12.045-1.045,17.665c1.89,2.651,4.707,4.231,7.397,5.919c3.032,1.903,5.567,4.258,8.357,6.51
	c2.085,1.682,4.822,3.81,7.703,5.16c-0.79,1.239-1.508,2.469-2.162,3.579c-2.971,5.038-9.873,13.475-6.99,19.709
	c2.741,5.926,12.189,8.694,17.341,11.877c4.22,2.608,10.002,5.391,15.505,6.424c-1.195,2.654-2.262,5.318-3.124,7.89
	c-1.923,5.737-4.729,13.493-2.819,19.525c2.002,6.324,9.343,8.956,14.924,11.332c6.87,2.926,15.287,3.679,22.582,5.258
	c0.435,0.094,0.892,0.16,1.337,0.241c-0.306,6.625,0.77,13.514,2.81,19.572c2.067,6.137,6.013,17.608,13.041,19.642
	c9.123,2.641,17.506-0.043,26.547-1.277c0.701-0.096,1.421-0.203,2.15-0.317c-0.218,2.478-0.161,5.013-0.13,7.362
	c0.049,3.783,0.463,8.44,3.463,11.145c4.008,3.615,8.704,0.829,13.319,0.526c0.293-0.019,0.591-0.035,0.891-0.05
	c-0.046,2.259,0.617,4.445,2.442,6.349c4.242,4.425,10.496,4.257,15.989,5.561c3.886,0.923,7.458,2.328,11.504,2.58
	c4.267,0.266,8.643-0.027,12.871-0.567c3.897-0.498,7.76-1.383,11.483-2.669c3.656,6.047,8.346,9.066,15.38,11.601
	c7.274,2.623,15.324,4.795,22.989,5.724c8.247,0.999,15.809,1.451,23.823-1.11c6.584-2.104,15.003-4.378,19.885-9.727
	c3.917,1.854,8,3.432,11.923,4.232c3.514,0.716,6.938,0.708,10.475,0.204c3.455-0.492,7.719-0.142,10.771-1.946
	c6.122-3.618,7.279-12.664,8.004-19.065c0.118-1.036,0.218-2.078,0.303-3.123c2.714,0.659,5.598,0.965,8.204,1.319
	c9.165,1.244,18.354,0.581,27.353-1.538c9.191-2.164,16.627-4.806,24.599-9.86c3.44-2.18,6.93-4.293,9.629-7.404
	c2.796-3.223,4.677-7.225,6.844-10.871c1.947-3.277,3.704-6.314,3.973-9.309c3.653-0.375,7.345-1.328,10.677-2.061
	c6.195-1.361,11.132-3.959,16.425-7.457c4.89-3.232,9.408-6.936,12.998-11.598c3.874-5.029,6.641-11.02,9.805-16.516
	c2.024-3.517,3.3-7.096,1.63-10.404c6.624-2.137,11.859-12.055,15.091-17.003c6.505-9.958,10.861-21.265,13.756-32.729
	c1.879-2.127,2.966-5.078,4.469-7.549c3.19-5.247,5.676-10.529,7.544-16.403c1.886-5.931,3.223-12.074,3.923-18.259
	c0.694-6.138,1.337-13.037,1.045-19.19c-0.119-2.502-0.295-7.008-1.087-11.385c0.031-0.081,0.07-0.154,0.096-0.239
	c1.102-3.588,3.124-6.897,4.186-10.514c0.985-3.353,1.317-7.069,1.414-10.557C510.736,243.956,509.877,236.285,505.241,230.536z
	 M481.078,222.074c-0.359,0.487-0.691,0.994-0.971,1.536c-2.22,3.633-4.894,7.724-6.762,11.742
	c-4.051-2.798-7.935-5.991-12.04-8.722c-0.069-0.046-0.148-0.096-0.22-0.144c4.612-2.531,9.026-5.491,13.235-8.613
	c2.257,1.251,4.422,2.407,6.541,4.016C480.906,221.924,480.984,221.991,481.078,222.074z M437.864,323.981
	c-4.064,3.879-9.927,7.015-14.671,10.02c-2.377,1.506-5.475,2.673-8,4.344c-0.774-1.509-1.638-2.972-2.63-4.365
	c-2.225-3.124-4.847-5.924-6.949-9.138c-0.274-0.419-0.544-0.854-0.816-1.292c2.159-0.109,4.316-0.265,6.464-0.46
	c8.529-0.774,17.547-1.824,25.747-4.416c6.666-2.108,14.031-8.156,11.252-15.94c-1.054-2.951-3.644-5.098-5.497-7.601
	c1.809-0.439,3.626-1.025,5.582-1.122c4.823-0.241,9.466-0.736,14.28-0.185c2.491,0.285,3.27,0.334,3.185,3.037
	c-0.07,2.233-1.183,4.739-1.82,6.868c-1.699,5.671-4.448,10.734-6.663,16.174c-3.53,8.669-9.438,17.641-16.297,24.049
	c-3.99,3.728-8.338,7.083-12.813,10.195c-2.403,1.671-4.687,3.779-7.085,5.642c-0.261-4.602-1.127-9.223-2.747-13.815
	c-0.166-0.471-0.336-0.94-0.51-1.408c1.221-0.34,2.432-0.708,3.564-1.269c2.296-1.137,4.415-3.021,6.367-4.655
	c4.44-3.717,8.376-8.166,12.403-12.317C441.7,324.791,439.41,322.505,437.864,323.981z M291.936,186.749
	c6.849-4.907,14.492-7.945,21.766-12.09c7.509-4.278,14.987-8.54,22.69-12.47c7.456-3.804,14.789-7.633,21.997-11.888
	c3.443-2.032,8.171-3.406,12.258-5.41c-0.24,1.755-0.577,3.503-0.887,5.184c-1.011,5.483-2.977,10.524-5.865,15.289
	c-4.574,7.548-10.845,13.753-16.817,20.179c-3.266,2.062-6.597,4.025-10.099,5.702c-9.473,4.538-20.114,7.033-30.294,9.574
	c-10.887,2.717-23.1,3.691-34.254,2.633c-2.16-0.205-4.345-0.35-6.497-0.627c-0.24-0.031-1.073-0.23-1.863-0.41
	c0.103-0.724,0.048-1.576,0.101-2.172c0.262-2.975,0.49-5.94,0.818-8.912c2.378-21.544,17.987-40.835,36.631-50.927
	c9.98-5.402,21.06-8.657,32.396-8.644c5.493,0.006,11.011-0.295,16.455,0.56c5.268,0.827,11.147,1.062,16.275,2.475
	c0.564,0.156,1.035,0.328,1.466,0.513c-4.584,1.413-9.11,4.05-12.858,6.203c-7.765,4.46-15.607,8.68-23.431,13.033
	c-14.878,8.275-29.671,17.701-42.51,28.936C287.659,185.016,290.003,188.134,291.936,186.749z M337.027,246.361
	c-0.275-4.709,0.586-9.448,1.396-14.065c1.551-8.837,4.617-17.463,8.711-25.472c3.504-6.854,9.998-12.516,15.574-17.682
	c0.362-0.335,5.738-4.709,7.904-6.664c0.504,0.394,1.008,0.786,1.515,1.177c1.594,1.303,2.931,2.753,4.298,4.289
	c11.798,13.255,15.411,29.989,10.439,47.185c-2.196,7.594-6.022,14.716-11.306,20.612c-1.696,1.892-3.676,4.109-5.835,6.283
	c-3.086,0.832-6.088,1.917-8.667,3.5c0.089-0.38,0.177-0.776,0.247-1.208c0.415-2.55,0.126-5.148,0.357-7.717
	c0.33-3.665,1.197-7.275,1.851-10.891c2.222-12.285,4.21-24.504,5.366-36.906c0.069-0.747-1.137-0.899-1.303-0.176
	c-1.435,6.242-4.517,12.118-6.11,18.397c-1.681,6.625-2.769,13.365-4.365,20.006c-1.418,5.902-1.653,12.218-3.37,17.961
	c-0.441,1.475-0.685,3.045-0.671,4.599c-0.349-0.497-0.697-0.993-1.064-1.481c-3.18-4.234-8.93-12.715-15.143-14.612
	C337.561,251.332,337.191,249.163,337.027,246.361z M434.701,148.726c-6.709-0.77-13.489-1.412-20.247-0.917
	c-6.193,0.454-11.939,2.282-17.849,4.07c-5.34,1.616-10.874,3.492-15.549,6.614c-0.428,0.286-0.927,0.608-1.467,0.957
	c2.634-7.116,4.143-14.95,3.364-21.942c3.456-0.888,6.905-2.512,10.373-3.672c0.447,0.052,0.919-0.031,1.377-0.317
	c0.138-0.086,0.28-0.158,0.42-0.234c1.189-0.328,2.381-0.589,3.576-0.709c7.675-0.766,15.996-0.552,23.523,1.051
	c7.168,1.526,14.521,3.148,20.926,6.848c3.574,2.064,9.132,4.682,12.214,8.15c-1.312,1.814-3.472,3.488-4.801,4.708
	c-2.661,2.444-5.383,4.841-8.167,7.144c-6.875,5.689-14.633,9.971-22.847,13.423c-11.781,4.952-24.376,7.451-36.291,4.345
	c-1.744-2.045-3.72-4.104-5.824-5.677c1.764-0.922,3.401-2.422,4.803-3.651c4.781-4.194,9.668-6.941,15.649-9.132
	c5.474-2.005,10.728-4.175,16.426-5.482c3.293-0.756,6.522-1.327,9.86-1.822c3.583-0.532,6.894-1.771,10.529-2.126
	C435.754,150.252,435.741,148.846,434.701,148.726z M368.276,284.311c6.148,1.252,12.067,2.674,18.156,4.153
	c6.011,1.461,11.827,2.729,17.761,4.533c5.141,1.562,9.991,3.917,15.131,5.422c0.873,0.256,1.233-0.898,0.581-1.378
	c-2.242-1.651-4.14-3.61-6.478-5.164c-2.819-1.873-6.043-2.979-9.111-4.366c-6.463-2.923-13.189-4.833-19.693-7.614
	c-5.592-2.39-11.428-3.727-17.323-5.152c1.553-0.632,3.082-1.399,4.57-2.31c1.654-0.528,3.326-0.972,4.99-1.319
	c7.637-1.596,15.393-3.065,23.111-1.402c7.168,1.544,14.317,4.125,20.068,8.789c5.926,4.806,9.798,11.016,13.521,17.547
	c0.947,1.661,4.463,6.237,3.634,7.914c-0.796,1.609-7.954,2.385-9.532,2.71c-8.444,1.739-16.873,2.641-25.478,3.102
	c-8.614,0.461-16.545-0.374-24.754-3.102c-3.234-1.074-6.44-2.297-9.356-4.083c-0.884-0.541-1.793-1.203-2.748-1.759
	c-0.155-0.908-0.305-1.814-0.489-2.728c-1.034-5.118-2.457-10.064-4.36-14.8C363.095,283.689,365.857,283.819,368.276,284.311z
	 M365.966,324.534c0.102,0.197,0.209,0.391,0.31,0.589c2.606,5.085,6.121,9.513,9.117,14.356
	c6.18,9.988,12.144,20.744,16.485,31.654c0.783,1.968,3.924,1.224,3.258-0.898c-3.707-11.8-7.552-23.506-13.18-34.592
	c-2.709-5.337-5.866-10.392-8.409-15.823c-0.203-0.434-0.402-0.884-0.599-1.34c4.043,1.888,7.904,3.211,10.079,3.68
	c4.236,0.914,8.531,1.349,12.842,1.488c0.277,0.323,0.535,0.671,0.756,1.068c1.116,2.002,1.514,4.365,2.575,6.409
	c1.411,2.719,3.485,5.082,5.015,7.735c1.793,3.11,2.92,6.51,4.049,9.908c4.468,13.438,1.604,26.664-4.951,38.895
	c-0.808,1.508-1.758,3.906-2.958,5.536c-0.108-0.218-0.672-0.426-1.687-1.122c-1.1-0.755-2.235-1.454-3.342-2.198
	c-5.503-3.699-10.513-8.607-15.201-13.294c-4.787-4.786-7.014-11.725-10.405-17.509c-3.024-5.158-4.662-11.477-8.186-16.272
	C363.738,336.831,365.214,330.745,365.966,324.534z M463.761,277.419c-0.933,1.713-2.092,3.784-3.055,5.499
	c-2.754-0.257-5.53-0.285-8.045-0.291c-3.195-0.007-6.736-0.604-9.87,0.177c-1.776,0.442-3.672,1.356-5.425,2.306
	c-0.558-1.029-1.149-2.036-1.807-2.998c-1.748-2.555-3.687-4.903-5.784-7.054c3.48,0.226,6.571,0.136,8.131-0.017
	c9.209-0.904,19.001-3.28,27.831-7.143c0.904,0.673,1.864,1.253,2.809,1.855C467.258,272.447,465.202,274.775,463.761,277.419z
	 M463.451,256.298c-5.384,2.736-11.621,4.339-17.359,6.196c-6.183,2.002-12.545,3.165-19.054,3.228
	c-1.915,0.018-3.82-0.103-5.733-0.152c-1.04-0.026-2.123-0.105-3.162-0.052c-0.969,0.05-1.42-0.475-1.655-0.361
	c-5.991-3.161-12.603-5.248-19.566-6.228c-3.363-0.473-6.951-0.424-10.567-0.073c1.969-2.561,3.666-5.124,5.015-7.48
	c0.829-1.448,1.594-2.951,2.311-4.488c0.551,0.345,1.206,0.588,1.995,0.644c4.214,0.302,8.117,2.019,12.499,2.025
	c4.345,0.005,8.65,0.516,13.002,0.645c9.454,0.277,19.316-0.254,28.7-1.229c1.46-0.152,1.487-2.17,0-2.293
	c-4.884-0.401-9.546-1.797-14.419-2.17c-4.763-0.364-9.535-0.558-14.281-1.127c-4.388-0.527-8.594-1.416-13.002-1.579
	c-4.018-0.149-7.718-2.07-11.592-2.309c1.028-3.16,1.845-6.415,2.408-9.719c1.874,1.323,3.988,2.356,5.637,3.098
	c8.556,3.846,16.658,3.08,25.765,2.301c6.435-0.549,12.475-1.457,18.427-3.332c0.816,0.55,1.716,1.002,2.714,1.511
	c3.286,1.676,6.693,3.867,9.711,5.971c2.983,2.079,5.43,4.77,8.487,6.756c1.322,0.859,2.978,1.998,4.141,3.41
	c-1.023,0.79-2.071,1.538-2.823,2.131C468.795,253.398,466.008,254.998,463.451,256.298z M478.354,198.692
	c-0.365,1.782-4.459,5.065-5.841,6.285c-2.263,1.999-4.843,3.63-7.372,5.269c-10.613,6.88-21.061,11.969-33.779,13.178
	c-6.559,0.623-12.994,1.984-19.604,1.26c-2.799-0.307-5.478-0.906-8.12-1.891c-0.487-0.182-2.303-0.531-3.778-0.883
	c0.287-5.726-0.178-11.437-1.501-16.837c2.532-0.226,5.15-0.84,7.323-1.287c5.632-1.158,11.2-1.005,16.828-1.941
	c4.938-0.822,10.041-0.905,15.119-1.612c4.184-0.582,8.38,0.555,12.425-0.187c0.646-0.119,0.62-1.143,0-1.28
	c-2.028-0.45-3.641-1.855-5.64-2.398c-1.905-0.518-3.932-0.602-5.896-0.675c-3.272-0.122-6.486,0.55-9.727-0.083
	c-2.114-0.413-3.541-0.792-5.71-0.641c-9.084,0.63-18.677-0.6-27.703,1.448c-1.044-2.337-2.246-4.596-3.595-6.777
	c4.239,0.281,8.314,0.073,11.391-0.361c11.086-1.563,22.108-5.513,32.011-11.137c2.261,0.836,3.659,1.245,6.709,1.285
	c3.216,0.043,6.19,0.422,9.279,1.393c5.606,1.762,11.041,3.842,15.998,7.039C470.22,189.826,479.19,194.61,478.354,198.692z
	 M463.013,155.438c2.861-3.64,4.118-6.737,2.493-10.213c1.63,1.379,3.291,2.812,5.086,3.916c1.755,1.079,5.009,1.973,5.8,4.035
	c0.765,1.997-1.116,5.59-1.757,7.476c-0.842,2.474-1.804,4.939-2.215,7.527c-0.511,3.222-1.457,6.318-2.199,9.469
	c-4.08-2.303-8.244-4.325-12.901-5.962c-2.97-1.044-5.85-2.025-8.886-2.6C453.599,164.999,458.977,160.574,463.013,155.438z
	 M446.636,102.77c2.511,1.287,4.774,2.892,7.352,4.108c1.323,0.624,6.606,2.457,7.157,4.048c-0.225-0.649-2.662,5.585-2.868,6.046
	c-1.094,2.44-2.332,4.996-3.554,7.377c-0.902,1.759-2.06,3.565-3.118,5.421c-0.666,0.66-1.078,1.492-1.245,2.375
	c-0.059,0.124-0.13,0.245-0.186,0.369c-0.599-0.344-1.194-0.684-1.775-1.018c-6.947-3.99-14.736-5.942-22.494-7.645
	c-2.3-0.505-4.686-0.94-7.12-1.302c1.587-0.392,3.211-0.658,5.071-0.999c5.73-1.051,12.52-2.337,17.845-4.615
	c2.646-1.132,0.656-4.914-1.859-4.41c-3.217,0.643-6.718,0.119-10.009,0.549c-3.25,0.425-6.457,0.698-9.722,0.919
	c3.338-3.756,6.424-7.775,9.159-11.906c0.947-1.431,1.881-2.952,2.792-4.519C436.997,99.051,441.998,100.394,446.636,102.77z
	 M429.831,61.526c3.699,1.68,4.035,3.128,3.204,6.967c-0.593,2.736-1.37,5.558-2.168,8.237c-2.042,6.862-5.946,14.524-9.851,20.534
	c-5.614,8.637-12.753,16.93-20.33,24.371c-7.866,0.485-15.546,2.273-22.129,6.076c-6.304-5.788-18.093-5.997-25.835-7.191
	c-0.446-0.069-0.895-0.121-1.342-0.184c0.542-0.243,1.084-0.484,1.62-0.742c7.941-3.82,16.13-8.559,23.593-13.241
	c6.908-4.333,12.896-9.923,19.492-14.683c2.938-2.12,5.576-4.303,8.122-6.885c2.427-2.461,4.758-6.112,7.37-8.234
	c0.733-0.596,0.086-1.721-0.725-1.751c-5.518-0.199-11.493,6.768-15.778,9.589c-6.748,4.442-13.298,9.293-20.157,13.554
	c-7.233,4.494-15.291,8.081-22.926,11.858c-2.689,1.33-5.676,2.368-8.587,3.551c5.655-7.933,9.875-15.74,13.156-25.197
	c3.025-8.717,4.855-18.528,4.532-27.945c2.365-0.186,5.031-1.356,7.212-2.179c7.028-2.652,14.25-3.029,21.701-3.156
	C403.439,54.646,417.491,55.921,429.831,61.526z M348.295,21.941c3.489-3.731,10.945-4.825,15.716-5.532
	c5.965-0.885,14.241-4.38,20.066-1.81c4.429,1.953,7.862,11.399,9.268,15.702c1.371,4.198,1.823,8.432,2.318,12.669
	c-4.75-0.171-9.612,0.054-13.97,0.35c-5.651,0.382-12.258,0.757-17.875,2.898c0.486-1.341,1.063-2.681,1.614-3.948
	c2.605-5.985,6.856-11.012,10.535-16.301c0.849-1.221-0.792-2.689-1.981-1.981c-4.642,2.765-8.267,5.944-11.732,10.273
	c-1.68,2.098-3.611,4.699-5.1,7.471c-1.966-5.081-4.453-9.999-6.937-14.734c-0.797-1.52-1.655-3.009-2.556-4.472
	C347.877,22.35,348.09,22.162,348.295,21.941z M321.31,25.481c1.084-1.068,5.999-6.747,7.478-6.62
	c0.463,0.04,3.062,2.786,3.625,3.29c1.657,1.484,3.153,3.109,4.468,4.905c4.46,6.088,8.216,13.485,11.088,20.447
	c3.555,8.617,3.728,17.366,2.718,26.518c-1.108,10.027-4.41,21.279-9.739,29.88c-2.56,4.132-5.361,8.249-8.275,12.137
	c-0.672,0.897-1.501,2.216-2.419,3.613c-6.385,0.515-12.702,1.712-18.822,3.664c0.217-3.279,0.504-6.544,1.219-9.801
	c1.448-6.593,3.806-12.909,5.015-19.566c1.116-6.151,3.718-11.847,4.824-17.994c1.255-6.975,1.536-13.942,3.147-20.87
	c0.239-1.029-1.225-1.417-1.57-0.433c-2.62,7.459-5.031,15.256-8.018,22.568c-1.38,3.378-3.141,6.583-4.495,9.972
	c-1.486,3.722-2.105,7.679-3.284,11.502c-2.213,7.17-4.734,14.015-5.688,21.507c-0.246,1.934-0.635,4.403-0.472,6.649
	c-6.712,2.94-13.1,6.645-18.854,11.173c-1.067-5.363-1.559-10.746-1.625-16.427c-0.107-9.136,2.025-18.232,3.309-27.229
	c1.242-8.7,4.573-16.782,7.781-24.933c1.623-4.124,4.131-7.914,5.932-11.975c1.813-4.088,3.473-8.252,5.949-11.998
	C309.306,38.341,315.241,31.464,321.31,25.481z M278.95,22.963c0.704-3.462,2.101-6.602,3.187-9.941
	c0.861-2.647,0.475-2.531,3.092-1.69c2.196,0.706,4.399,1.213,6.651,1.696c6.952,1.491,11.874,3.833,16.495,8.413
	c-3.891,4.57-7.741,9.371-11.135,14.429c-0.597-2.132-1.244-4.258-1.804-6.353c-0.475-1.776-1.031-3.814-2.05-5.345
	c-1.025-1.539-2.195-1.799-3.423-2.935c-0.511-0.472-1.475-0.167-1.442,0.597c0.188,4.295,0.751,8.499,1.07,12.797
	c0.231,3.116,0.901,6.682,2.859,9.206c-0.581,1.108-1.134,2.228-1.651,3.362c-1.909,4.191-3.918,8.268-5.98,12.363
	c-0.718-3.766-2.089-7.489-3.305-11.023C278.694,40.345,277.2,31.564,278.95,22.963z M269.745,48.615
	c1.21,3.686,2.706,7.297,4.225,10.835c1.715,3.994,2.811,8.141,6.329,10.576c-0.975,2.621-1.935,5.251-3.084,7.795
	c-2.376,5.263-2.838,11.001-3.771,16.633c-1.037,6.264-2.047,12.48-2.938,18.771c-1.545,10.911-1.341,23.961,2.596,34.437
	c-7.888,9.074-13.287,19.714-17.589,30.996c-2.229,5.844-2.39,12.545-2.966,18.737c-0.494,5.308-1.94,10.532,2.987,14.206
	c3.21,2.394,7.406,2.661,11.25,3.025c7.607,0.72,14.656,1.09,22.277,0.286c15.02-1.585,30.227-4.534,44.381-10.026
	c0.776-0.301,1.55-0.626,2.323-0.967c-3.579,8.264-6.832,16.376-8.309,25.353c-1.097,6.665-4.033,18.166-0.234,24.871
	c-7.835,3.851-13.189,13.517-16.297,21.227c-3.917,9.719-5.687,20.618-5.522,31.087c0,0.008,0.001,0.016,0.001,0.016
	c-0.396,0.215-0.785,0.459-1.156,0.776c-3.215,2.744-7.494,3.677-10.631,6.564c-3.153,2.901-5.653,7.018-8.294,10.412
	c-5.65,7.262-9.511,16.002-13.589,24.2c-3.862,7.764-6.931,16.682-7.745,25.345c-0.576,6.13-0.135,12.399,0.645,18.583
	c-3.398,0.788-6.623,3.591-9.319,5.456c-6.958,4.813-13.406,9.847-19.212,16.074c-7.113,7.629-12.312,16.737-15.188,26.588
	c-7.187-2.699-16.478-0.227-23.486,1.932c-4.243,1.307-8.464,2.783-12.526,4.59c6.274-7.463,12.359-15.52,16.38-24.348
	c2.192-4.812,4.498-9.471,6.887-14.182c2.674-5.273,4.261-11.046,6.696-16.44c2.376-5.263,2.839-11.001,3.771-16.633
	c1.037-6.264,2.047-12.481,2.938-18.771c1.545-10.911,1.341-23.961-2.597-34.437c7.888-9.074,13.287-19.714,17.589-30.996
	c2.229-5.844,2.39-12.545,2.966-18.737c0.494-5.308,1.94-10.532-2.987-14.206c-3.21-2.394-7.407-2.661-11.25-3.025
	c-7.607-0.72-14.656-1.09-22.277-0.286c-15.02,1.585-30.227,4.534-44.381,10.026c-0.775,0.301-1.55,0.626-2.323,0.967
	c3.579-8.264,6.832-16.377,8.309-25.353c1.097-6.665,4.033-18.166,0.234-24.871c7.835-3.851,13.189-13.517,16.297-21.227
	c3.917-9.719,5.687-20.618,5.522-31.088c0,0-0.001-0.016-0.001-0.024c0.396-0.207,0.785-0.451,1.156-0.768
	c3.215-2.744,7.495-3.677,10.631-6.564c3.153-2.901,5.653-7.018,8.293-10.412c5.65-7.262,9.511-16.002,13.589-24.2
	c3.23-6.492,5.884-13.791,7.15-21.073c2.876-1.054,5.419-3.511,7.923-5.192c2.887-1.939,5.506-4.831,8.066-7.172
	c5.783-5.287,10.757-11.699,15.14-18.167C262.857,63.57,266.967,56.286,269.745,48.615z M242.598,454.036
	c3.017-0.909,3.781-5.471,4.911-7.973c2.606-5.77,5.354-11.414,8.197-17.073c2.932-5.837,5.871-11.674,8.724-17.55
	c0.829-1.706,1.762-3.423,2.561-5.173c1.705,6.729,4.572,13.487,7.616,19.588c-0.037,0.226-0.089,0.442-0.099,0.686
	c-0.482,11.467-8.795,23.304-15.783,31.885c-4.009,4.923-7.615,9.095-12.735,12.846c-2.417,1.77-4.768,3.633-7.189,5.393
	c-1.025,0.746-3.054,2.344-4.814,3.392c-1.247-2.938-1.948-7.103-2.438-9.213c-0.937-4.032-1.412-8.116-1.442-12.258
	c-0.063-8.59,1.866-17.054,5.863-24.676c4.186-7.983,9.962-14.313,15.994-20.895c1.549-1.69,3.237-3.165,4.945-4.616
	c-2.16,4.979-3.955,10.165-5.966,15.043c-2.055,4.985-4.415,9.923-6.109,15.047c-0.843,2.551-1.51,5.174-1.962,7.822
	c-0.249,1.46,0.045,5.474-1.035,6.412C241.236,453.246,241.872,454.255,242.598,454.036z M200.146,283.096
	c-6.849,4.907-14.492,7.945-21.766,12.09c-7.509,4.278-14.987,8.54-22.69,12.47c-7.456,3.804-14.789,7.633-21.997,11.888
	c-3.443,2.032-8.171,3.406-12.258,5.41c0.24-1.755,0.577-3.503,0.887-5.184c1.011-5.483,2.977-10.524,5.865-15.289
	c4.574-7.548,10.845-13.753,16.817-20.179c3.266-2.062,6.597-4.025,10.099-5.702c9.474-4.538,20.114-7.033,30.294-9.574
	c10.887-2.717,23.1-3.691,34.254-2.633c2.16,0.205,4.345,0.35,6.497,0.627c0.24,0.031,1.073,0.23,1.864,0.41
	c-0.103,0.724-0.048,1.576-0.101,2.172c-0.262,2.975-0.49,5.941-0.818,8.912c-2.378,21.543-17.988,40.835-36.631,50.927
	c-9.98,5.402-21.06,8.657-32.396,8.644c-5.493-0.006-11.011,0.295-16.455-0.56c-5.268-0.827-11.146-1.062-16.275-2.475
	c-0.564-0.156-1.035-0.328-1.466-0.513c4.584-1.413,9.11-4.05,12.859-6.203c7.765-4.46,15.607-8.68,23.431-13.033
	c14.878-8.276,29.671-17.701,42.51-28.936C204.423,284.83,202.079,281.711,200.146,283.096z M57.381,321.12
	c6.709,0.77,13.489,1.412,20.247,0.917c6.193-0.454,11.938-2.282,17.849-4.07c5.34-1.616,10.874-3.493,15.549-6.614
	c0.428-0.286,0.927-0.608,1.466-0.957c-2.633,7.116-4.143,14.95-3.364,21.942c-3.456,0.888-6.905,2.512-10.373,3.672
	c-0.447-0.052-0.919,0.031-1.378,0.317c-0.138,0.086-0.28,0.158-0.42,0.234c-1.189,0.329-2.381,0.589-3.576,0.709
	c-7.675,0.766-15.997,0.552-23.523-1.051c-7.168-1.526-14.52-3.148-20.926-6.848c-3.574-2.064-9.132-4.682-12.215-8.15
	c1.312-1.814,3.472-3.488,4.801-4.708c2.661-2.444,5.383-4.841,8.167-7.144c6.875-5.688,14.633-9.971,22.847-13.423
	c11.781-4.952,24.376-7.451,36.291-4.345c1.744,2.045,3.72,4.104,5.824,5.677c-1.764,0.922-3.402,2.422-4.803,3.651
	c-4.781,4.194-9.668,6.941-15.649,9.132c-5.473,2.005-10.728,4.175-16.425,5.482c-3.294,0.756-6.522,1.327-9.86,1.822
	c-3.583,0.532-6.894,1.771-10.529,2.126C56.328,319.594,56.341,321,57.381,321.12z M105.218,234.718
	c2.196-7.594,6.022-14.716,11.306-20.612c1.696-1.892,3.676-4.109,5.835-6.283c3.086-0.832,6.088-1.917,8.667-3.5
	c-0.089,0.38-0.177,0.776-0.247,1.208c-0.415,2.55-0.126,5.148-0.357,7.717c-0.33,3.665-1.197,7.275-1.851,10.891
	c-2.222,12.285-4.21,24.504-5.366,36.906c-0.07,0.746,1.137,0.899,1.304,0.176c1.434-6.242,4.517-12.118,6.11-18.397
	c1.681-6.625,2.769-13.365,4.365-20.006c1.418-5.902,1.653-12.218,3.37-17.961c0.441-1.475,0.684-3.045,0.671-4.599
	c0.349,0.497,0.697,0.993,1.064,1.481c3.18,4.234,8.93,12.715,15.143,14.612c-0.711,2.163-0.341,4.332-0.177,7.134
	c0.275,4.709-0.586,9.448-1.396,14.065c-1.551,8.837-4.617,17.463-8.711,25.472c-3.504,6.854-9.998,12.516-15.574,17.682
	c-0.362,0.335-5.738,4.709-7.904,6.664c-0.504-0.394-1.008-0.786-1.515-1.177c-1.594-1.303-2.931-2.753-4.298-4.289
	C103.859,268.648,100.246,251.913,105.218,234.718z M72.177,172.805c2.242,1.651,4.14,3.61,6.478,5.164
	c2.819,1.873,6.043,2.979,9.111,4.366c6.463,2.923,13.189,4.833,19.693,7.614c5.592,2.39,11.428,3.727,17.323,5.153
	c-1.553,0.632-3.082,1.399-4.571,2.31c-1.654,0.528-3.326,0.972-4.99,1.319c-7.637,1.596-15.393,3.065-23.11,1.403
	c-7.168-1.544-14.317-4.125-20.068-8.789c-5.926-4.806-9.797-11.016-13.521-17.548c-0.947-1.661-4.463-6.237-3.634-7.914
	c0.795-1.609,7.954-2.385,9.532-2.71c8.444-1.739,16.873-2.641,25.478-3.101c8.614-0.461,16.545,0.374,24.754,3.101
	c3.234,1.074,6.44,2.297,9.357,4.083c0.884,0.541,1.793,1.203,2.748,1.759c0.155,0.908,0.305,1.814,0.489,2.728
	c1.034,5.118,2.457,10.064,4.36,14.8c-2.619-0.384-5.381-0.513-7.8-1.006c-6.148-1.252-12.067-2.674-18.156-4.153
	c-6.011-1.461-11.827-2.729-17.762-4.533c-5.141-1.562-9.991-3.917-15.131-5.422C71.885,171.171,71.525,172.325,72.177,172.805z
	 M159.408,353.807c0.672-0.897,1.501-2.216,2.419-3.613c6.385-0.515,12.702-1.712,18.822-3.664
	c-0.217,3.279-0.504,6.544-1.219,9.801c-1.448,6.593-3.807,12.909-5.015,19.566c-1.117,6.151-3.718,11.847-4.824,17.995
	c-1.255,6.975-1.536,13.943-3.147,20.87c-0.239,1.029,1.225,1.417,1.571,0.433c2.62-7.46,5.031-15.256,8.018-22.568
	c1.38-3.378,3.141-6.583,4.495-9.972c1.487-3.722,2.105-7.679,3.285-11.502c2.213-7.17,4.734-14.015,5.688-21.508
	c0.246-1.934,0.635-4.403,0.472-6.649c6.712-2.94,13.1-6.645,18.854-11.173c1.067,5.363,1.559,10.746,1.625,16.427
	c0.107,9.136-2.025,18.232-3.309,27.229c-1.242,8.7-4.573,16.782-7.781,24.933c-1.624,4.124-4.131,7.914-5.932,11.975
	c-1.813,4.088-3.473,8.252-5.949,11.998c-4.704,7.119-10.639,13.997-16.708,19.979c-1.084,1.068-5.999,6.747-7.478,6.62
	c-0.463-0.04-3.062-2.786-3.625-3.29c-1.657-1.484-3.153-3.109-4.468-4.905c-4.46-6.088-8.216-13.485-11.088-20.447
	c-3.555-8.618-3.728-17.366-2.717-26.518c1.108-10.027,4.41-21.279,9.739-29.88C153.694,361.812,156.495,357.695,159.408,353.807z
	 M239.304,24.415c5.736-2.916,11.859-5.711,18.265-6.776c1.608-0.268,2.845,0.083,2.986-0.168c0.479,1.109,0.62,2.878,0.838,3.78
	c0.978,4.053,1.023,7.748,0.284,11.843c-1.206,6.685-3.509,12.438-6.297,18.59c-2.317,5.111-5.723,10.793-9.436,15.019
	c-4.138,4.71-7.595,9.585-12.424,13.713c-1.758,1.503-3.499,3.23-5.339,4.622c-0.348-5.556-1.178-11.118-2.039-16.521
	c-0.03-0.187-0.073-0.375-0.105-0.563c0.975-1.333,1.649-2.815,2.545-4.324c1.695-2.854,3.706-5.527,5.441-8.362
	c3.339-5.457,7.147-11.563,9.251-17.616c0.923-2.655-3.008-4.113-4.41-1.859c-3.209,5.157-6.767,10.239-10.117,15.327
	c-1.606,2.438-3.217,5.274-4.954,7.951c-1.376-4.228-3.118-8.408-4.994-12.366c1.887-3.443,3.442-7.206,5.707-10.363
	C228.247,31.125,233.647,27.29,239.304,24.415z M185.512,28.381c4.405-2.856,8.47-4.845,13.527-6.409
	c8.495-2.626,19.052-3.882,28.015-1.104c-3.561,2.723-6.78,5.875-9.438,9.542c-1.452,2.003-3.179,4.673-4.505,7.54
	c-3.459-2.659-7.802-2.2-13.03,0.15c-6.505,2.924-12.136,7.305-16.887,12.558c-0.083-0.75-0.182-1.509-0.316-2.286
	c-0.91-5.273-1.751-10.896-3.269-16.198C181.768,30.998,183.863,29.45,185.512,28.381z M180.244,73.182
	c4.008-8.725,9.961-17.46,18.054-22.879c1.51-1.011,7.199-4.791,9.381-4.499c-0.928,0.036,1.027,3.172,1.264,3.673
	c1.078,2.272,1.952,4.536,2.821,6.896c3.41,9.265,5.566,18.385,6.143,28.268c0.621,10.645-1.52,19.216-5.37,29.031
	c-1.556,3.967-3.844,7.598-5.62,11.485c-2.076,4.547-4.559,9.272-7.574,13.273c-1.788,2.373-3.818,5.435-6.058,7.925
	c1.744-5.697,2.675-11.822,3.789-17.631c1.401-7.304,0.487-14.712,0.932-22.082c0.249-4.117,0.312-8.242,0.56-12.349
	c0.17-2.808-0.26-7.013,0.445-9.714c0.474-1.815-1.597-3.6-3.279-2.521c-3.645,2.337-4.195,8.314-4.708,12.234
	c-0.998,7.613-0.906,15.441-0.754,23.096c0.134,6.733-0.852,13.494-2.138,20.099c-0.686,3.523-1.419,7.021-2.138,10.537
	c-0.163,0.796-0.276,1.615-0.387,2.436c-1.467-10.123-4.407-20.338-8.645-29.737C175.354,104.558,173.085,88.767,180.244,73.182z
	 M175.183,160.382c0.71,9.148-0.799,18.763-3.792,27.407c-1.498,4.327-3.641,8.299-6.317,12.01
	c-0.533,0.739-1.086,1.447-1.641,2.142c-0.362-3.199-0.931-6.386-1.088-9.213c-0.364-6.556-0.791-12.855-1.557-19.379
	c-0.883-7.518-2.705-14.624-4.347-22.008c-0.706-3.176-1.194-6.344-2.189-9.424c-0.972-3.008-2.049-5.568-2.379-8.787
	c-0.057-0.56-0.936-0.794-1.066-0.144c-2.617,13.01,2.731,25.653,2.997,38.544c0.146,7.072,0.905,14.126,1.182,21.199
	c0.143,3.654,0.563,7.287,0.881,10.928c0.045,0.511,0.078,1.016,0.109,1.518c-2.46-3.194-4.698-6.653-6.852-9.778
	c-4.558-6.611-7.432-13.583-9.381-21.346c-4.028-16.048-4.472-32.825,2.42-48.184c3.038-6.771,6.96-13.828,11.763-19.509
	c-0.012,0.015,0.606-0.622,1.268-1.318c0.039,0.049,0.071,0.088,0.091,0.116c1.793,2.52,3.473,5.205,5.001,7.888
	C168.643,127.722,173.868,143.444,175.183,160.382z M125.599,72.805c1.614-7.436,4.485-13.927,9.256-19.892
	c4.476-5.596,8.954-11.857,15.074-15.812c5.026-3.247,11.114-5.794,17.044-7.353c1.336,1.976,1.766,5.471,2.229,7.284
	c0.947,3.708,1.649,7.476,2.395,11.227c1.101,5.537,1.19,11.061,1.823,16.576c-1.899,3.645-3.5,7.43-4.784,11.253
	c-2.909,8.662-3.308,17.144-2.632,25.93c-3.259-4.729-7.657-10.582-13.616-7.929c-3.513,1.564-6.519,4.954-9.084,8.674
	c0.745-6.12,1.848-12.191,3.102-18.227c1.093-5.257,1.828-10.632,3.378-15.779c1.525-5.066,3.179-9.832,3.776-15.126
	c0.077-0.681-0.906-1.028-1.339-0.555c-7.452,8.155-10.385,20.148-12.945,30.568c-1.483,6.035-2.781,12.119-3.753,18.258
	c-0.413,2.605-0.884,5.228-1.018,7.821c-1.447-2.758-3.109-5.45-4.605-8.138c-2.084-3.746-3.583-7.867-6.029-11.396
	C124.495,84.394,124.332,78.64,125.599,72.805z M88.768,82.184c0.808-1.508,1.758-3.906,2.958-5.536
	c0.108,0.218,0.672,0.425,1.688,1.123c1.1,0.755,2.235,1.454,3.342,2.198c5.503,3.699,10.513,8.607,15.201,13.294
	c4.787,4.786,7.014,11.725,10.405,17.509c3.024,5.158,4.662,11.477,8.186,16.272c-2.204,5.972-3.679,12.058-4.431,18.269
	c-0.102-0.197-0.209-0.391-0.311-0.589c-2.606-5.085-6.121-9.513-9.117-14.356c-6.18-9.988-12.144-20.744-16.485-31.654
	c-0.783-1.968-3.924-1.224-3.258,0.898c3.707,11.8,7.552,23.506,13.18,34.592c2.709,5.337,5.866,10.392,8.409,15.823
	c0.203,0.434,0.402,0.884,0.599,1.34c-4.043-1.888-7.904-3.211-10.079-3.68c-4.236-0.914-8.531-1.349-12.842-1.488
	c-0.277-0.323-0.535-0.671-0.756-1.068c-1.116-2.002-1.515-4.365-2.575-6.409c-1.411-2.719-3.485-5.082-5.015-7.735
	c-1.793-3.11-2.92-6.51-4.049-9.908C79.349,107.64,82.212,94.415,88.768,82.184z M28.092,166.115
	c1.699-5.671,4.448-10.734,6.663-16.174c3.53-8.669,9.438-17.641,16.297-24.049c3.991-3.728,8.338-7.083,12.813-10.195
	c2.403-1.671,4.687-3.778,7.085-5.642c0.261,4.602,1.127,9.223,2.747,13.815c0.166,0.471,0.337,0.94,0.51,1.408
	c-1.221,0.34-2.432,0.708-3.564,1.269c-2.296,1.137-4.415,3.021-6.368,4.655c-4.44,3.717-8.376,8.166-12.403,12.317
	c-1.49,1.536,0.8,3.822,2.346,2.346c4.064-3.879,9.927-7.015,14.671-10.02c2.377-1.505,5.475-2.673,8-4.344
	c0.774,1.509,1.638,2.972,2.63,4.365c2.225,3.123,4.847,5.924,6.949,9.138c0.274,0.419,0.544,0.854,0.816,1.292
	c-2.159,0.109-4.315,0.265-6.464,0.46c-8.529,0.774-17.547,1.824-25.747,4.416c-6.666,2.108-14.031,8.156-11.252,15.94
	c1.054,2.951,3.644,5.098,5.497,7.601c-1.809,0.439-3.626,1.025-5.582,1.122c-4.823,0.241-9.465,0.736-14.28,0.185
	c-2.491-0.285-3.271-0.334-3.185-3.037C26.342,170.751,27.454,168.244,28.092,166.115z M28.321,192.427
	c0.933-1.713,2.092-3.784,3.055-5.499c2.754,0.257,5.53,0.285,8.045,0.291c3.195,0.007,6.736,0.604,9.87-0.177
	c1.776-0.442,3.672-1.356,5.425-2.306c0.558,1.029,1.149,2.036,1.807,2.999c1.748,2.555,3.687,4.903,5.784,7.054
	c-3.48-0.226-6.571-0.136-8.131,0.017c-9.209,0.904-19.001,3.28-27.832,7.143c-0.904-0.673-1.864-1.253-2.809-1.855
	C24.824,197.399,26.881,195.071,28.321,192.427z M21.031,218.225c2.256-1.778,5.042-3.377,7.6-4.677
	c5.383-2.736,11.621-4.339,17.359-6.196c6.183-2.002,12.545-3.165,19.054-3.228c1.915-0.018,3.821,0.103,5.733,0.152
	c1.04,0.026,2.123,0.105,3.162,0.052c0.969-0.05,1.42,0.475,1.655,0.361c5.991,3.161,12.603,5.248,19.566,6.228
	c3.363,0.473,6.951,0.424,10.567,0.073c-1.969,2.561-3.666,5.125-5.015,7.48c-0.829,1.448-1.594,2.951-2.311,4.488
	c-0.551-0.345-1.206-0.588-1.995-0.644c-4.214-0.302-8.117-2.019-12.499-2.025c-4.345-0.005-8.65-0.517-13.002-0.645
	c-9.454-0.277-19.316,0.254-28.7,1.229c-1.46,0.152-1.487,2.17,0,2.292c4.884,0.401,9.546,1.798,14.419,2.17
	c4.764,0.364,9.535,0.557,14.281,1.127c4.388,0.527,8.594,1.416,13.002,1.579c4.018,0.149,7.718,2.07,11.592,2.309
	c-1.028,3.16-1.845,6.415-2.408,9.719c-1.874-1.323-3.988-2.356-5.637-3.098c-8.556-3.846-16.658-3.08-25.765-2.301
	c-6.435,0.549-12.475,1.457-18.427,3.332c-0.816-0.55-1.716-1.002-2.714-1.511c-3.286-1.676-6.694-3.867-9.711-5.971
	c-2.983-2.079-5.43-4.77-8.487-6.755c-1.322-0.859-2.978-1.998-4.141-3.41C19.232,219.566,20.279,218.818,21.031,218.225z
	 M11.004,247.771c0.359-0.487,0.691-0.994,0.971-1.536c2.22-3.633,4.894-7.724,6.762-11.742c4.051,2.798,7.935,5.991,12.04,8.721
	c0.069,0.046,0.148,0.096,0.22,0.144c-4.612,2.53-9.026,5.491-13.235,8.613c-2.257-1.251-4.422-2.407-6.541-4.015
	C11.176,247.922,11.098,247.854,11.004,247.771z M13.728,271.154c0.365-1.782,4.459-5.065,5.841-6.285
	c2.263-1.999,4.843-3.63,7.372-5.269c10.613-6.88,21.061-11.969,33.779-13.178c6.559-0.623,12.994-1.984,19.604-1.26
	c2.799,0.307,5.478,0.906,8.12,1.891c0.487,0.182,2.303,0.531,3.778,0.883c-0.287,5.726,0.178,11.437,1.501,16.837
	c-2.533,0.226-5.15,0.84-7.323,1.287c-5.632,1.158-11.2,1.005-16.828,1.941c-4.938,0.822-10.041,0.905-15.119,1.612
	c-4.184,0.582-8.38-0.555-12.425,0.187c-0.646,0.119-0.62,1.143,0,1.28c2.028,0.45,3.641,1.855,5.64,2.398
	c1.905,0.518,3.932,0.602,5.896,0.675c3.272,0.122,6.486-0.55,9.727,0.083c2.113,0.413,3.541,0.792,5.71,0.641
	c9.084-0.63,18.677,0.6,27.703-1.448c1.044,2.337,2.246,4.596,3.595,6.777c-4.239-0.281-8.314-0.073-11.391,0.361
	c-11.086,1.563-22.108,5.513-32.011,11.137c-2.261-0.836-3.659-1.245-6.709-1.285c-3.216-0.043-6.19-0.422-9.279-1.393
	c-5.605-1.762-11.041-3.842-15.998-7.039C21.862,280.02,12.892,275.236,13.728,271.154z M29.069,314.408
	c-2.861,3.64-4.118,6.737-2.493,10.214c-1.63-1.379-3.291-2.812-5.087-3.916c-1.755-1.079-5.009-1.973-5.799-4.035
	c-0.765-1.997,1.115-5.59,1.757-7.476c0.842-2.474,1.804-4.939,2.215-7.527c0.511-3.222,1.457-6.318,2.199-9.469
	c4.08,2.303,8.244,4.325,12.901,5.962c2.97,1.044,5.85,2.025,8.886,2.6C38.483,304.847,33.105,309.272,29.069,314.408z
	 M45.446,367.076c-2.511-1.287-4.774-2.892-7.352-4.108c-1.323-0.624-6.605-2.457-7.157-4.048c0.225,0.649,2.662-5.585,2.868-6.046
	c1.094-2.44,2.332-4.996,3.554-7.377c0.902-1.759,2.06-3.565,3.118-5.421c0.666-0.66,1.078-1.492,1.245-2.375
	c0.059-0.124,0.13-0.245,0.187-0.37c0.599,0.344,1.194,0.684,1.775,1.017c6.947,3.99,14.736,5.942,22.494,7.645
	c2.3,0.505,4.686,0.94,7.12,1.302c-1.587,0.392-3.211,0.658-5.071,0.999c-5.73,1.051-12.52,2.337-17.845,4.615
	c-2.646,1.132-0.656,4.914,1.859,4.41c3.216-0.643,6.718-0.119,10.009-0.549c3.25-0.425,6.457-0.698,9.722-0.919
	c-3.338,3.756-6.424,7.775-9.159,11.906c-0.948,1.431-1.881,2.952-2.792,4.519C55.085,370.794,50.084,369.452,45.446,367.076z
	 M62.251,408.32c-3.699-1.68-4.035-3.128-3.204-6.967c0.592-2.736,1.37-5.558,2.167-8.237c2.041-6.862,5.946-14.524,9.851-20.534
	c5.614-8.637,12.753-16.93,20.331-24.371c7.866-0.485,15.546-2.273,22.129-6.076c6.304,5.788,18.093,5.997,25.834,7.191
	c0.447,0.069,0.895,0.121,1.342,0.184c-0.541,0.243-1.084,0.484-1.62,0.742c-7.941,3.82-16.13,8.559-23.593,13.241
	c-6.908,4.333-12.896,9.923-19.492,14.683c-2.938,2.12-5.576,4.303-8.122,6.885c-2.427,2.461-4.758,6.112-7.37,8.234
	c-0.733,0.596-0.087,1.721,0.725,1.751c5.518,0.199,11.493-6.768,15.778-9.589c6.748-4.442,13.298-9.293,20.157-13.554
	c7.233-4.494,15.291-8.081,22.926-11.858c2.689-1.33,5.676-2.368,8.587-3.551c-5.655,7.933-9.875,15.74-13.156,25.197
	c-3.025,8.717-4.855,18.528-4.532,27.945c-2.365,0.186-5.031,1.356-7.212,2.179c-7.028,2.652-14.25,3.029-21.701,3.156
	C88.643,415.2,74.591,413.924,62.251,408.32z M128.071,453.437c-5.965,0.885-14.241,4.38-20.067,1.81
	c-4.429-1.953-7.862-11.398-9.268-15.702c-1.371-4.198-1.823-8.432-2.318-12.669c4.75,0.171,9.612-0.054,13.97-0.35
	c5.651-0.382,12.258-0.757,17.875-2.898c-0.486,1.341-1.063,2.681-1.614,3.948c-2.605,5.985-6.856,11.012-10.535,16.301
	c-0.849,1.221,0.793,2.689,1.981,1.981c4.641-2.765,8.266-5.944,11.732-10.273c1.68-2.098,3.611-4.699,5.1-7.471
	c1.966,5.081,4.453,9.999,6.937,14.734c0.797,1.52,1.655,3.009,2.556,4.472c-0.215,0.174-0.428,0.363-0.633,0.583
	C140.297,451.635,132.842,452.729,128.071,453.437z M155.737,469.766c-0.66,0.912-1.352,1.92-2.017,2.986
	c-0.241,0.105-0.486,0.199-0.746,0.262c-1.731,0.425-3.969,0.006-5.795,0.258c-1.203,0.167-3.917,0.162-4.905,0.861
	c-0.062,0.006-0.105,0.015-0.161,0.021c-0.004-2.11-0.84-4.657-0.954-6.818c-0.098-1.872-0.116-3.718-0.326-5.525
	c3.904-1.2,7.61-2.95,10.383-5.634c2.464,2.674,5.392,5.425,8.465,6.662c0.549,0.221,1.095,0.386,1.639,0.507
	C159.317,465.315,157.434,467.421,155.737,469.766z M191.847,485.559c-3.551,0.487-7.245,0.682-10.828,0.529
	c-3.376-0.144-6.303-1.348-9.55-2.123c-1.951-0.465-3.948-0.597-5.9-1.033c-1.039-0.233-2.26-0.837-3.297-0.967
	c-0.082-0.01-0.149-0.024-0.218-0.036c0.243-0.555,0.513-1.098,0.841-1.615c0.758-1.382,1.671-2.697,2.604-3.963
	c1.995-2.708,4.298-5.258,6.896-7.401c4.865-4.014,10.342-7.967,16.081-10.618c6.03-2.786,12.593-4.923,19.022-6.546
	c2.546-0.643,5.016-1.596,7.568-2.193c1.419-0.332,2.733-0.529,4.011-0.788c-0.223,1.468-0.382,2.95-0.506,4.437
	c-2.938,0.732-5.434,2.407-8.013,4.012c-3.226,2.007-6.561,3.673-9.859,5.548c-7.03,3.998-14.387,8.873-22.145,11.286
	c-0.782,0.243-0.937,1.593,0,1.745c8.039,1.3,16.613-2.889,23.815-6.145c4.693-2.123,11.626-4.152,16.084-7.925
	c0.148,2.868,0.457,5.738,0.965,8.572c-3.552,3.033-6.696,6.531-10.715,9.071C203.645,482.602,197.743,484.749,191.847,485.559z
	 M261.854,500.095c-6.487,2.048-13.377,1.291-20.041,0.507c-6.078-0.716-12.624-2.644-18.573-4.21
	c-3.09-0.813-6.213-1.9-9.014-3.457c-1.052-0.584-1.948-1.321-2.828-2.073c1.464-0.768,2.901-1.591,4.282-2.513
	c2.203-1.471,4.88-3.129,7.283-5.071c1.859,5.19,4.831,10.822,10.825,9.358c5.276-1.288,9.994-4.796,14.423-8.226
	c0.562,2.122,1.264,4.21,1.431,6.45c0.274,3.675,5.483,3.698,5.731,0c0.283-4.22,0.625-8.448,0.884-12.685
	c1.879-1.586,3.631-3.229,5.293-4.96c0.881,3.738,2.506,7.439,4.03,10.221c2.524,4.607,6.147,8.363,10.484,11.236
	C272.092,497.448,265.752,498.864,261.854,500.095z M314.461,487.957c-0.245,1.1-0.437,2.91-1.062,3.854
	c1.111,0.275,1.09,0.366-0.064,0.271c-0.568-0.041-1.131-0.005-1.688,0.107c-2.716,0.255-5.349,1.145-8.091,1.093
	c-5.649-0.108-11.241-3.212-16.346-5.346c-4.607-1.925-8.538-4.278-11.875-8.054c-2.187-2.474-3.704-5.258-4.902-8.313
	c-0.746-1.904-1.838-3.592-2.772-5.365c0.429-0.53,0.857-1.057,1.29-1.602c2.177-2.742,9.725-13.462,14.132-23.485
	c0.201,5.105,1.824,10.445,3.318,14.853c1.374,4.054,3.844,7.55,5.632,11.425c1.873,4.057,3.362,8.152,6.383,11.523
	c1.116,1.245,2.716-0.13,2.521-1.468c-1.431-9.777-6.373-18.367-8.338-27.917c-0.906-4.4-0.716-8.718-1.36-13.053
	c-0.23-1.546-0.92-2.85-2.011-3.658c0.897-0.296,1.818-0.647,2.774-1.077c6.486-2.916,12.102-7.281,16.845-12.512
	c-0.001,0.027-0.008,0.052-0.008,0.08c-0.024,1.538,0.29,3.001,0.752,4.433c1.015,6.033,2.073,12.383,4.261,18.096
	c0.144,2.524,0.239,5.039,0.448,7.432C315.388,461.793,317.23,475.518,314.461,487.957z M311.838,396.664
	c-4.008,8.725-9.961,17.46-18.054,22.879c-1.439,0.964-6.669,4.435-9.045,4.506c-0.041-0.046-0.086-0.089-0.129-0.134
	c0.297-0.588-1.26-3.102-1.471-3.546c-1.078-2.272-1.952-4.536-2.821-6.896c-3.41-9.265-5.566-18.385-6.143-28.268
	c-0.621-10.645,1.52-19.216,5.37-29.031c1.556-3.967,3.844-7.598,5.62-11.485c2.077-4.547,4.559-9.273,7.574-13.273
	c1.788-2.373,3.818-5.435,6.058-7.925c-1.745,5.697-2.675,11.822-3.789,17.631c-1.401,7.304-0.487,14.712-0.932,22.082
	c-0.249,4.117-0.312,8.242-0.56,12.349c-0.17,2.808,0.26,7.013-0.445,9.714c-0.474,1.815,1.597,3.6,3.279,2.521
	c3.645-2.336,4.195-8.314,4.708-12.234c0.998-7.613,0.906-15.441,0.754-23.096c-0.133-6.733,0.852-13.494,2.138-20.099
	c0.686-3.523,1.419-7.021,2.138-10.537c0.163-0.796,0.276-1.615,0.387-2.436c1.467,10.123,4.407,20.338,8.645,29.737
	C316.728,365.288,318.997,381.079,311.838,396.664z M320.69,282.057c1.498-4.327,3.641-8.299,6.317-12.01
	c0.533-0.739,1.085-1.447,1.641-2.142c0.362,3.199,0.931,6.386,1.088,9.213c0.363,6.556,0.791,12.855,1.557,19.379
	c0.883,7.518,2.705,14.624,4.347,22.008c0.706,3.176,1.194,6.344,2.189,9.424c0.972,3.008,2.049,5.568,2.379,8.787
	c0.057,0.56,0.936,0.794,1.066,0.144c2.617-13.01-2.731-25.653-2.997-38.544c-0.146-7.072-0.905-14.126-1.182-21.199
	c-0.143-3.654-0.563-7.287-0.882-10.928c-0.045-0.511-0.078-1.016-0.109-1.518c2.46,3.194,4.698,6.653,6.852,9.778
	c4.558,6.611,7.432,13.583,9.381,21.346c4.028,16.048,4.472,32.825-2.42,48.184c-3.038,6.771-6.96,13.828-11.763,19.509
	c0.012-0.015-0.606,0.622-1.268,1.318c-0.039-0.048-0.071-0.088-0.091-0.116c-1.793-2.52-3.473-5.205-5.001-7.888
	c-8.358-14.681-13.583-30.402-14.898-47.341C316.188,300.316,317.698,290.701,320.69,282.057z M325.007,439.919
	c-0.434-1.866-0.919-3.723-1.471-5.566c-0.321-1.07-0.672-2.123-1.046-3.167c-0.753-3.181-1.368-6.396-2.005-9.602
	c-1.101-5.537-1.19-11.061-1.824-16.576c1.899-3.645,3.5-7.43,4.784-11.253c2.909-8.662,3.308-17.144,2.632-25.93
	c3.259,4.729,7.657,10.582,13.616,7.929c3.513-1.564,6.519-4.954,9.084-8.674c-0.745,6.12-1.848,12.191-3.102,18.227
	c-1.093,5.257-1.828,10.632-3.378,15.779c-1.525,5.066-3.179,9.832-3.776,15.126c-0.077,0.681,0.906,1.028,1.339,0.555
	c7.452-8.155,10.385-20.148,12.945-30.568c1.483-6.035,2.781-12.119,3.754-18.258c0.412-2.605,0.885-5.228,1.018-7.822
	c1.448,2.758,3.11,5.45,4.605,8.138c2.084,3.746,3.583,7.867,6.029,11.396c-0.624,5.797-0.462,11.552-1.728,17.386
	c-1.614,7.436-4.485,13.927-9.256,19.892c-4.476,5.596-8.954,11.857-15.074,15.811c-5.026,3.247-11.114,5.794-17.044,7.353
	C325.072,440.042,325.043,439.976,325.007,439.919z M393.111,449.789c-1.492,2.66-2.796,5.384-5.06,7.49
	c-2.274,2.115-5.168,3.634-7.76,5.328c-5.827,3.808-12.028,5.277-18.731,6.909c-6.792,1.654-13.857,2.36-20.83,1.731
	c-4.425-0.399-8.356-1.676-12.43-2.802c-0.035-1.724-0.1-3.446-0.191-5.159c1.484,0.15,3.006,0.033,4.495-0.25
	c3.587-0.681,6.989-0.901,10.572-2.035c9.218-2.917,17.262-6.102,25.359-11.38c0.739-0.482,0.278-1.648-0.604-1.433
	c-7.816,1.905-16.01,3.366-23.938,4.81c-3.748,0.683-7.054,0.762-10.792,0.97c-2.128,0.119-3.892,0.028-5.872-0.077
	c-0.107-0.954-0.216-1.908-0.34-2.86c0.034-0.009,0.065-0.013,0.099-0.023c6.829-1.868,13.739-4.551,19.805-8.246
	c3.344-2.037,6.826-4.844,9.847-7.914c5.788-1.479,12.922-1.668,18.57-0.247c5.972,1.502,11.932,4.006,17.776,5.973
	c1.59,0.535,2.372,1.202,3.839,1.78c0.297,0.117,0.499,0.228,0.643,0.328C396.408,445.124,394.415,447.464,393.111,449.789z
	 M447.84,401.233c-1.085,1.762-2.211,3.478-3.218,5.288c-4.604,8.278-9.448,13.958-17.547,19.017
	c-4.12,2.574-7.704,3.92-12.423,4.976c-4.024,0.9-8.427,1.402-12.425,2.59c-5.43-3.337-12.505-4.221-18.421-5.972
	c-3.706-1.097-7.437-1.748-11.135-1.985c3.688-0.7,7.46-1.054,11.123-1.847c10.818-2.342,21.745-4.5,32-8.741
	c2.99-1.237,1.949-5.637-1.363-4.945c-10.214,2.137-20.399,3.865-30.458,6.683c-4.33,1.214-8.824,1.84-13.113,3.169
	c-1.13,0.35-2.268,0.751-3.381,1.205c2.008-3.038,3.853-6.174,5.297-9.594c2.615-6.192,3.939-13.055,4.539-19.741
	c0.064-0.718,0.114-1.443,0.143-2.172c5.841,5.381,11.793,11.078,18.905,14.725c7.269,3.728,11.926-2.374,15.218-8.13
	c0.865-1.512,1.666-3.053,2.434-4.606c6.982,0.501,14.07,1.023,20.791,2.836c2.431,0.656,4.862,1.456,7.243,2.274
	c1.812,0.621,5.036,2.93,6.854,3.131C448.53,399.997,448.171,400.606,447.84,401.233z M476.389,350.314
	c-2.361,7.54-6.226,15.559-10.53,22.203c-3.726,5.75-8.031,10.566-12.417,15.748c-0.201,0.238-0.357,0.495-0.503,0.754
	c-3.175-1.51-6.713-2.494-9.865-3.332c-6.764-1.8-13.266-2.75-20.228-2.582c0.419-0.259,0.841-0.52,1.27-0.78
	c4.327-2.626,8.847-5.003,13.344-7.324c8.461-4.367,16.1-8.464,22.849-15.28c2.112-2.134-0.559-5.432-3.143-4.074
	c-7.911,4.156-15.401,8.999-23.181,13.408c-3.93,2.227-7.836,4.481-11.459,7.19c-1.298,0.971-2.549,2-3.808,3.019
	c1.018-3.429,1.761-6.913,2.16-10.431c4.555-0.409,8.165-3.417,12.415-6.001c5.564-3.384,10.953-7.552,15.628-12.107
	c2.801-2.73,5.282-5.681,7.53-8.787c5.611-0.893,11.159-1.264,17.023-1.098c1.722,0.048,3.43,0.046,5.108,0.474
	c0.06,0.015,0.116,0.042,0.176,0.058C477.86,343.869,476.559,349.771,476.389,350.314z M494.88,286.55
	c-0.531,7.117-0.996,14.534-2.455,21.533c-1.762,8.449-5.463,16.226-7.805,24.357c-3.137-1.313-7.1-1.5-10.195-1.346
	c-3.191,0.158-7.6,0.338-11.89,1.139c0.329-0.6,0.638-1.214,0.957-1.821c1.542-1.495,2.593-3.307,3.682-5.399
	c1.925-3.698,4.159-7.165,6.386-10.689c4.688-7.415,9.47-14.795,13.633-22.493c1.441-2.665-2.221-4.615-3.959-2.315
	c-2.606,3.448-5.247,6.872-7.828,10.33c0.932-6.181,0.005-12.016-5.687-14.742c-0.188-0.09-0.393-0.155-0.586-0.239
	c0.299-0.389,0.572-0.763,0.811-1.1c0.397-0.56,0.809-1.124,1.229-1.691c3.706-0.526,7.034-2.96,10.354-4.569
	c2.614-1.267,5.263-2.496,7.937-3.632c0.73-0.31,2.697-1.441,4.494-2.333c0.281,2.127,0.296,4.521,0.469,6.034
	C494.766,280.532,495.102,283.572,494.88,286.55z M497.364,260.728c-0.935-0.124-1.968-0.037-3.125,0.335
	c-2.284,0.733-4.119,2.542-6.203,3.681c-2.721,1.488-5.489,2.824-8.075,4.551c-0.607,0.406-1.202,0.827-1.791,1.257
	c0.142-0.424,0.273-0.852,0.38-1.285c0.391-1.584,0.029-3.394-1.2-4.54c-0.606-0.565-1.335-1.201-2.138-1.831
	c0.287-0.182,0.581-0.357,0.864-0.543c3.809-2.501,10.961-6.936,10.248-12.208c-0.518-3.83-4.47-8.83-7.916-11.469
	c1.668-1.39,3.029-3.213,4.329-4.961c1.472-1.978,2.716-4.155,4.251-6.084c0.12-0.151,0.244-0.297,0.368-0.443
	c1.027,0.836,2.028,1.706,2.999,2.782c1.919,2.125,3.757,4.321,5.545,6.562C501.438,243.477,498.743,252.276,497.364,260.728z"/>
<g>
</g>
<g>
</g>
<g>
</g>
<g>
</g>
<g>
</g>
<g>
</g>
<g>
</g>
<g>
</g>
<g>
</g>
<g>
</g>
<g>
</g>
<g>
</g>
<g>
</g>
<g>
</g>
<g>
</g>
</svg>
