<?xml version="1.0" encoding="iso-8859-1"?>
<!-- Generator: Adobe Illustrator 19.0.0, SVG Export Plug-In . SVG Version: 6.00 Build 0)  -->
<svg version="1.1" id="Capa_1" xmlns="http://www.w3.org/2000/svg" xmlns:xlink="http://www.w3.org/1999/xlink" x="0px" y="0px"
	 viewBox="0 0 512.001 512.001" style="enable-background:new 0 0 512.001 512.001;" xml:space="preserve">
<path style="fill:#F99E4D;" d="M275.322,58.794c-18.913,17.548-39.28,33.642-53.756,55.766c-6.106,9.332-7.188,18.571-8.209,29.73
	c-1.936,21.157-3.646,42.28-4.902,63.476c-2.065,34.849-4.497,70.061-4.461,104.949c0.013,12.352-0.96,24.798-0.721,37.098
	c0.059,3.04-0.234,9.661,1.369,12.386c2.515,4.274,1.398,2.119,6.235,3.281c12.845,3.087,26.514,2.846,39.538,2.742
	c21.54-0.174,22.712-21.28,36.084-31.934c15.192-12.105,36.173-13.118,54.229-7.927c8.106,2.331,17.094,4.918,23.131,11.126
	c7.715,7.934,7.46,8.89,18.286,1.621c13.49-9.058,22.719-14.106,39.496-14.946c12.498-0.626,28.382-1.704,39.987,4.272
	c10.765,5.543,19.311,21.826,31.294,24.244c6.546-9.971,4.791-27.361,4.899-38.738c0.163-17.163,0.101-34.068,0.033-51.219
	c-0.076-18.814,2.069-37.438,2.049-56.223c-0.018-16.637-1.947-33.147-2.074-49.744c-0.087-11.387,2.143-23.366-0.004-34.674
	c-2.014-10.608-12.665-13.501-20.115-20.833c-10.274-10.111-19.902-20.966-30.015-31.19c-11.096-11.216-18.879-12.204-34.406-11.892
	c-27.137,0.545-53.538,0.267-80.623-1.016c-11.726-0.555-23.519-0.445-35.267-0.356C291.196,58.841,280.503,58.05,275.322,58.794z"
	/>
<g>
	<path style="fill:#7CD15D;" d="M326.751,170.877c7.357-19.494,20.898-36.736,36.507-50.29c2.817-2.446,9.662-5.947,6.943-9.774
		c-2.352-3.311-15.025-3.374-18.909-3.58c-21.612-1.145-41.393,4.958-55.227,22.451c-4.602,5.819-15.092,16.027-14.208,24.293
		c0.815,7.62,11.964,11.309,17.728,14.213c5.985,3.016,11.905,6.657,18.065,9.232C323.638,179.926,324.893,177.249,326.751,170.877z
		"/>
	<path style="fill:#7CD15D;" d="M338.077,241.427c-14.743-0.992-29.382,0.485-44.171,0.481c-7.446-0.002-13.886,0.101-20.986-2.115
		c-4.133-1.29-8.587-3.224-12.823-3.762c-3.491,8.452,9.897,25.222,13.796,32.429c5.356,9.901,16.044,16.45,26.779,19.71
		c11.055,3.358,23.705,3.29,34.924,1.492c11.233-1.8,9.764-9.108,9.872-19.218C345.549,262.929,347.279,247.493,338.077,241.427z"/>
	<path style="fill:#7CD15D;" d="M389.395,199.015c5.763,3.316,12.077,16.582,15.782,22.674c4.281,7.039,9.162,14.387,12.881,21.637
		c4.424,8.624,2.443,18.003,5.233,26.797c3.832,12.08,11.105-5.316,13.949-9.783c8.221-12.907,17.587-25.189,13.705-41.473
		c-3.062-12.845-7.829-26.723-15.184-37.748c-5.808-8.706-9.374-6.012-17.848-1.32c-6.419,3.554-12.962,7.125-19.15,11.063
		C396.307,192.426,392.553,194.057,389.395,199.015z"/>
</g>
<g>
	<path style="fill:#4F9E2E;" d="M255.484,229.452c-3.815-8.98-2.846-17.71,1.976-25.961c1.758-3.008,5.374-5.28,6.796-8.295
		c1.734-3.678,0.085-3.932-2.912-6.99c-3.202-3.268-6.596-7.125-8.725-11.225c7.069-2.488,17.593-1.719,25.14-2.024
		c4.254-0.172,16.433-0.959,20.091,1.467c2.562,1.699,3.563,7.397,5.326,10.118c2.372,3.662,4.802,6.806,6.819,10.707
		c2.915,5.637,9.63,12.461,10.639,18.537c-4.408,0.156-10.872-2.835-14.401-0.339c-6.266,4.432-6.17,16.523-10.381,22.556
		c-4.286,6.141-11.881,4.65-18.561,3.132C270.273,239.54,257.078,238.215,255.484,229.452z"/>
	<path style="fill:#4F9E2E;" d="M345.517,137.038c6.181,3.849,12.615,13.401,16.643,19.466c4.386,6.603-2.052,11.58-3.956,18.523
		c4.282,2.533,13.267,1.383,18.246,1.428c7.648,0.07,15.24,0.975,22.82-0.498c6.493-1.262,6.406-5.94,9.011-12.177
		c1.916-4.587,4.278-7.742,7.41-11.518c2.609-3.145,7.564-7.808,8.568-11.834c1.51-6.051-4.095-4.617-8.627-3.866
		c-7.67,1.271-10.664,5.387-14.288-2.319c-2.685-5.71-5.478-10.271-10.199-14.586c-6.636-6.065-13.229-8.498-21.512-3.909
		C362.977,119.438,351.358,128.354,345.517,137.038z"/>
	<path style="fill:#4F9E2E;" d="M412.627,240.687c-6.989-4.37-15.794,2.042-23.109,1.958c-7.076-0.082-9.263-7.236-12.527-12.386
		c-2.102,5.079-6.558,9.324-9.132,14.275c-1.95,3.753-3.313,7.853-5.333,11.585c-3.051,5.635-7.559,10.469-4.401,16.219
		c5.268,9.591,12.058,18.257,17.275,27.876c1.992,3.672,2.877,7.249,7.017,3.633c4.745-4.148,0.416-11.674,4.973-15.388
		c4.992-4.069,17.242,1.802,23.769-1.019C429.133,279.671,425.808,254.765,412.627,240.687z"/>
</g>
<path style="fill:#FFC94E;" d="M44.506,355.966c0.757-32.759-3.831-66.135-0.337-98.777c1.296-12.105,6.73-18.849,14.448-28.638
	c12.573-15.947,26.207-30.989,39.278-46.501c4.993-5.925,9.86-15.907,17.726-18.709c11.317-4.031,26.718-0.079,38.477-0.074
	c10.043,0.004,19.988-0.24,29.954-1.011c5.757-0.445,14.996-2.994,20.678-1.027c9.211,3.189,5.178,16.625,4.87,24.396
	c-0.557,14.083,2.322,27.824,1.912,41.912c-0.301,10.321-1.977,20.534-2.088,30.868c-0.182,16.831,3.232,36.374,0.333,52.848
	c-1.655,9.405-3.468,18.819-4.119,28.362c-0.494,7.239,1.778,16.16-0.062,23.157c-3.495,13.29-26.601,8.853-35.792,4.115
	c-6.399-3.299-7.872-10.837-11.379-16.57c-3.777-6.174-8.37-11.233-14.915-14.522c-12.204-6.133-26.944-4.935-40.136-4.188
	c-12.064,0.683-23.494,1.043-34.757,6.043c-5.677,2.52-9.751,5.19-13.903,9.849C52.115,350.395,49.842,357.808,44.506,355.966z"/>
<path style="fill:#F99E4D;" d="M124.633,182.939c-7.2,4.132-12.388,13.079-18.011,19.204c-6.517,7.1-13.209,13.91-19.325,21.332
	c-3.725,4.52-17.616,19.66-15.331,26.05c4.82,13.482,36.653-25.04,47.108-23.054c3.607,8.061-0.52,16.689,0.79,25.051
	c1.307,8.345,3.808,5.576,12.332,6.22c4.491,0.339,15.521,2.68,19.597-0.102c4.857-3.315,4.269-16.981,4.704-22.273
	c0.434-5.277-0.619-18.799,3.418-23.283c3.049-3.385,9.699-1.029,14.418-1.294c3.725-0.209,11.043-0.149,13.404-2.82
	c3.601-4.076,1.019-19.782-0.788-24.913c-9.012-2.591-19.447-0.724-28.793-0.789C149.472,182.21,135.083,177.63,124.633,182.939z"/>
<g>
	<path style="fill:#929FA9;" d="M87.288,254.184c2.897,3.122,24.22,6.349,29.518,4.086c6.12-2.615,3.36-25.251,0.91-31.798
		c-3.842-0.296-6.18,3.208-9.352,5.173c-6.771,4.193-14.014,7.394-20.781,11.714C76.304,250.557,78.584,253.489,87.288,254.184z"/>
	<path style="fill:#929FA9;" d="M159.912,213.487c-4.837,6.238-3.372,19.319-4.06,27.186c-0.499,5.71-2.629,11.831-1.958,17.517
		c5.591,1.576,12.534-0.817,18.369-0.759c4.329,0.043,8.31-0.214,12.627-0.612c2.688-9.26,3.338-19.982,3.517-29.546
		c0.073-3.877,2.237-11.601-0.169-15.013C183.113,204.987,163.921,206.881,159.912,213.487z"/>
	<path style="fill:#929FA9;" d="M70.967,373.617c-3.302,7.977-8.737,28.623-18.859,29.905c-18.061,2.288-15.285-23.368-11.03-33.92
		c7.941-19.691,19.783-28.224,39.042-35.34c13.653-5.044,27.374-9.378,41.908-6.641c9.787,1.843,21.872,3.245,30.247,9.205
		c7.689,5.472,9.591,15.479,12.856,23.975c3.372,8.775,8.005,20.875,4.792,30.521c-2.201,6.608-13.02,10.531-17.842,7.541
		c-5.408-3.352-8.332-14.146-12.524-19.27c-4.787-5.852-11.129-12.34-17.675-16.174C109.787,356.336,80.349,359.513,70.967,373.617z
		"/>
	<path style="fill:#929FA9;" d="M307.142,326.181c-13.314-0.706-31.33,17.306-36.869,28.526c-5.138,10.409-8.636,23.04-7.987,34.806
		c0.571,10.351,8,12.547,17.587,9.812c10.156-2.897,11.271-18.346,17.065-25.626c14.836-18.64,40.379-21.571,58.976-7.804
		c6.635,4.912,10.253,11.74,13.933,19.044c3.819,7.58,6.395,10.152,12.588,2.319c9.711-12.282,17.412-26.784,34.289-29.795
		c13.646-2.434,23.496,2.916,32.954,12.208c6.569,6.454,9.161,13.12,13.343,21.022c4.937,9.327,10.618,9.162,20.56,7.643
		c8.626-1.318,10.682-2.72,12.896-11.2c1.86-7.128,3.374-15.725,0.683-22.88c-2.827-7.516-11.017-15.236-16.583-21.06
		c-8.444-8.836-19.623-15.986-31.447-18.856c-14.394-3.493-26.876-0.59-40.837,3.871c-6.451,2.061-12.52,4.467-18.752,6.969
		c-4.106,1.648-8.252,2.566-11.938,5.086c-1.413,0.966-2.677,4.151-4.305,4.582c-7.587,2.007-16.036-8.407-22.068-11.81
		c-7.312-4.126-16.445-6.755-24.759-7.392C317.393,324.949,311.028,327.45,307.142,326.181z"/>
</g>
<g>
	<path style="fill:#637079;" d="M285.399,422.539c4.864,6.196,7.653,14.67,14.059,19.862c6.914,5.603,16.281,7.047,24.973,7.954
		c20.685,2.157,36.149-1.39,46.334-21.565c7.768-15.388,6.816-35.833-3.021-50.372c-11.278-16.668-34.396-26.956-53.837-18.182
		C290.284,370.895,282.261,394.886,285.399,422.539z"/>
	<path style="fill:#637079;" d="M412.318,363.535c-23.488,10.735-41.552,37.545-31.277,64.732
		c7.222,19.11,38.617,28.454,56.707,22.731c26.902-8.511,39.315-36.141,29.565-62.322
		C458.908,366.11,433.555,349.157,412.318,363.535z"/>
	<path style="fill:#637079;" d="M90.651,360.729c-20.941,9.467-33.803,38.229-27.508,59.715
		c4.734,16.156,17.26,32.491,35.048,33.256c17.181,0.739,36.814-4.143,46.048-19.637c11.951-20.051,5.807-40.415-6.199-58.507
		c-5.717-8.615-12.773-16.061-23.06-19.205c-3.763-1.15-8.833-1.701-12.765-1.014C96.24,356.382,93.388,360.954,90.651,360.729z"/>
</g>
<g>
	<path style="fill:#929FA9;" d="M253.518,370.276c-12.933-2.731-27.788-2.135-41.07-2.575c-10.463-0.346-21.436-1.768-31.9-0.817
		c-11.388,1.035-9.988,10.402-8.64,20.568c1.106,8.337,0.404,11.354,9.932,12.016c14.35,0.996,29.786-1.006,44.21-1.391
		c8.642-0.231,17.038,1.805,25.44,1.744c8.349-0.061,9.978-5.049,10.215-13.355C262.001,376.106,260.766,371.419,253.518,370.276z"
		/>
	<path style="fill:#929FA9;" d="M41.791,358.001c-8.839-3.908-30.637,1.806-34.64,11.554c-2.483,6.047-0.773,20.925,2.579,27.211
		c2.782,5.216,3.574,4.169,10.404,4.588c8.135,0.499,19.208,5.198,21.669-3.822c2.252-8.256-2.65-17.876-0.044-26.584
		C42.883,367.187,49.245,355.179,41.791,358.001z"/>
</g>
<g>
	<path style="fill:#FFC94E;" d="M441.584,64.27c14.398,12.669,29.75,28.132,42.702,42.795c1.981,2.242,5.581,10.908,8.184,11.431
		c6.825,1.371,11.634-14.727,12.415-19.356c2.222-13.161-9.383-20.092-20.717-25.353C475.69,69.853,450.571,57.113,441.584,64.27z"
		/>
	<path style="fill:#FFC94E;" d="M417.841,30.332c-0.008,6.59-4.023,26.78,2.149,31.08c4.272,2.977,15.086,1.265,17.671-1.993
		c5.549-6.994,2.813-21.967-0.396-29.136C431.747,17.955,427.18,26.68,417.841,30.332z"/>
</g>
<path style="fill:#7CD15D;" d="M286.747,451.72c-43.23,2.269-86.899-0.767-130.167-2.6c-40.672-1.723-81.046-1.709-121.671,0.358
	c-6.827,0.347-13.473-0.667-18.95,4.002c-6.641,5.662-9.001,17.646-5.247,25.358c3.376,6.934,8.096,9.512,15.785,9.668
	c9.621,0.195,19.785-1.868,29.282-3.106c15.822-2.062,31.984-2.327,47.93-2.55c49.118-0.685,98.223,1.167,147.396,0.112
	c42.627-0.915,85.206,0.253,127.889,0.017c30.543-0.168,60.464-3.42,90.931-0.16c14.855,1.589,36.346,1.118,34.029-20.246
	c-1.062-9.79-10.974-8.7-19.221-9.984c-16.645-2.591-34.62-3.434-51.42-3.554c-28.077-0.201-55.932,2.335-83.976,3.229
	c-11.615,0.371-23.397,0.571-34.989-0.349C306.028,451.254,296.029,453.13,286.747,451.72z"/>
<path d="M257.912,190.106c0.898,0.811,3.162,2.338,4.417,3.499c-2.348,3.495-5.777,6.399-7.827,10.158
	c-2.405,4.409-3.983,10.509-4.175,15.491c-0.151,3.931,0.639,7.472,2.144,10.59c0.043,0.319,0.081,0.637,0.136,0.959
	c0.633,3.739,1.996,7.283,3.222,10.855c2.742,7.991,5.844,15.669,9.836,23.148c7.062,13.231,19.73,23.856,34.855,26.362
	c8.237,1.364,16.395,3.053,24.75,3.454c3.802,0.183,7.342-0.508,11.128-0.659c3.184-0.128,6.631-0.221,9.136-2.451
	c2.501-2.228,2.859-5.948,3.108-9.093c0.351-4.455,0.167-9.052-0.002-13.511c-0.302-8.014-0.793-15.989-2.141-23.869
	c-0.513-3.001-1.102-5.821-4.13-7.266c-3.382-1.615-8.161-0.142-11.685,0.261c-4.674,0.534-9.291,1.2-13.995,1.639
	c-2.34,0.218-4.685,0.383-7.024,0.574c-0.461,0.038-0.904,0.115-1.34,0.208c-2.304-0.084-4.605-0.221-6.904-0.436
	c-1.087-0.101-2.18-0.197-3.274-0.292c0.801-1.925,1.394-3.98,2.241-5.857c1.711-3.793,3.501-7.451,5.405-11.154
	c0.467-0.907,1.071-3.274,1.752-4.196c0.256-0.006,0.634-0.028,1.163-0.07c0.729,0.069,1.459,0.115,2.191,0.141
	c3.738,0.216,7.573,0.591,11.246,1.314c2.594,0.511,5.114-1.983,4.163-4.61c-0.834-2.303-2.506-4.098-3.899-6.094
	c-1.771-2.539-3.286-5.215-5.154-7.688c-3.763-4.982-6.686-10.519-9.967-15.815c-2.375-3.834-4.525-9.677-9.114-11.493
	c-4.154-1.643-10.588-0.297-15.042-0.539c-6.447-0.351-12.749-0.646-19.191-0.203c-2.803,0.192-5.646,0.453-8.446,0.278
	c-1.555-0.097-3.505-0.608-4.917,0.332c-3.244,2.16-0.353,7.046,1.201,9.36C253.41,185.863,255.752,188.156,257.912,190.106z
	 M304.532,246.929c3.428,0,6.855-0.145,10.279-0.362c2.091,0.071,4.222,0.05,6.462,0.001c3.322-0.073,6.509-0.725,9.794-1.043
	c1.43-0.139,2.854-0.36,4.286-0.49c0.738-0.067,1.858,0.117,2.552-0.116c0.282-0.021,0.563-0.042,0.845-0.064
	c0.677,1.465,0.77,4.33,0.94,5.797c0.4,3.451,0.589,6.978,0.749,10.459c0.167,3.641,0.334,7.282,0.379,10.927
	c0.041,3.233,0.9,9.07-0.535,12.104c-1.265,2.675-5.859,1.559-8.529,1.947c-3.174,0.462-6.004,0.547-9.209,0.156
	c-7.245-0.884-14.461-1.576-21.629-3.059c-12.898-2.669-23.246-11.833-29.54-23.021c-3.711-6.597-6.782-13.416-9.76-20.342
	c2.319,1.483,4.897,2.687,7.635,3.592C280.106,247,293.236,246.93,304.532,246.929z M261.264,178.663
	c4.002-0.204,7.94-0.488,11.944-0.272c4.466,0.241,8.92,0.654,13.384,0.909c2.856,0.164,6.771-0.883,9.34,0.613
	c3.03,1.764,3.931,5.842,5.486,8.744c1.895,3.537,3.997,7.018,5.943,10.544c2.582,4.678,5.916,8.956,8.946,13.388
	c-1.909-0.08-3.818-0.158-5.723-0.215c-2.949-0.088-6.337-0.649-7.91,2.378c-0.884,1.701-1.175,3.518-2.142,5.237
	c-1.117,1.984-2.347,3.914-3.392,5.938c-1.094,2.119-2.047,4.315-3.114,6.45c-0.861,1.724-1.403,4.667-2.554,6.131
	c-0.153,0.194-0.273,0.392-0.376,0.592c-3.426-0.332-6.842-0.731-10.199-1.316c-6.335-1.105-12.878-2.292-17.915-6.669
	c-9.882-8.589-3.362-25.542,4.361-33.307c3.105-3.123,3.369-5.666,0.103-8.916c-2.144-2.133-4.76-3.792-7.087-5.722
	c-1.239-1.028-2.534-2.044-3.616-3.243c-0.192-0.212-0.513-0.728-0.863-1.241C257.693,178.673,259.542,178.75,261.264,178.663z"/>
<path d="M421.078,171.74c-4.02,1.953-7.89,4.44-11.65,6.844c-6.757,4.319-13.385,8.781-19.498,13.933
	c-2.328,1.963-4.461,3.898-4.174,7.241c0.32,3.734,4.01,7.109,6.142,9.943c2.828,3.76,5.74,7.404,8.5,11.238
	c1.373,1.907,2.702,3.847,4.052,5.766c0.266,0.378,0.557,0.721,0.858,1.05c1.094,2.029,2.141,4.083,3.12,6.174
	c0.463,0.989,0.934,1.979,1.406,2.97c-2.065,0.284-4.138,0.814-6.185,1.034c-4.137,0.445-8.199,0.755-12.355,0.988
	c-1.018,0.057-3.366,0.735-4.506,0.614c-0.134-0.217-0.345-0.533-0.649-0.967c-0.31-0.663-0.639-1.316-0.988-1.96
	c-1.707-3.333-3.326-6.829-4.563-10.363c-0.873-2.495-4.3-3.406-6.083-1.255c-1.564,1.885-2.264,4.236-3.281,6.448
	c-1.292,2.813-2.833,5.475-4.019,8.337c-2.39,5.768-5.685,11.092-8.589,16.604c-2.103,3.99-6.054,8.802-5.295,13.68
	c0.686,4.414,5.106,9.28,7.153,13.244c2.963,5.737,5.899,11.32,9.544,16.651c1.586,2.32,3.25,4.639,4.518,7.142
	c0.704,1.39,1.25,3.33,2.776,4.071c3.506,1.703,6.255-3.264,7.463-5.776c1.269-2.637,2.061-5.818,2.649-8.667
	c0.244-1.185,0.415-3.911,0.78-5.581c4.203,0.254,8.444,1.741,12.723,1.605c5.02-0.16,11.079-1.888,15.471-4.245
	c3.466-1.86,6.119-4.335,8.045-7.212c0.254-0.198,0.509-0.393,0.758-0.603c2.903-2.439,5.27-5.41,7.728-8.276
	c5.502-6.412,10.552-12.974,14.979-20.204c7.833-12.79,10.579-29.094,5.08-43.405c-2.995-7.794-5.67-15.684-9.555-23.091
	c-1.768-3.371-4.156-6.074-6.204-9.262c-1.722-2.681-3.548-5.606-6.74-6.636C427.305,168.786,423.916,170.361,421.078,171.74z
	 M420.22,271.585c-2.401,12.871-20.322,15.833-30.929,13.107c-4.266-1.097-6.592-0.036-7.74,4.426
	c-0.754,2.929-0.859,6.025-1.345,9.009c-0.259,1.589-0.479,3.22-0.966,4.76c-0.086,0.273-0.367,0.811-0.633,1.373
	c-0.928-1.558-1.799-3.192-2.746-4.632c-2.202-3.348-4.442-6.599-6.283-10.162c-2.053-3.973-3.954-8.023-5.994-12.001
	c-1.305-2.545-4.19-5.391-4.202-8.364c-0.014-3.506,3.046-6.348,4.762-9.159c2.09-3.426,4.027-7.001,6.082-10.464
	c2.726-4.596,4.727-9.636,7.014-14.493c0.898,1.686,1.797,3.372,2.713,5.044c1.417,2.587,2.649,5.793,6.056,5.616
	c1.914-0.099,3.628-0.768,5.6-0.805c2.277-0.042,4.564,0.042,6.838-0.082c2.381-0.13,4.757-0.42,7.139-0.581
	c1.923-0.131,4.734-1.153,6.58-0.903c0.244,0.033,0.476,0.037,0.701,0.025c1.449,3.122,2.835,6.27,4.031,9.461
	C419.154,258.781,421.443,265.025,420.22,271.585z M432.795,184.443c2.006,2.503,3.512,4.9,4.798,7.862
	c2.907,6.695,5.965,13.268,8.316,20.2c4.231,12.474,1.569,26.038-4.892,37.13c-3.809,6.54-8.134,12.642-12.598,18.718
	c0.104-2.751-0.163-5.583-0.77-8.402c-2.404-11.176-9.114-22.463-14.835-32.203c-1.736-2.956-3.596-5.838-5.517-8.68
	c-0.998-1.839-2.095-3.666-3.272-5.572c-1.745-2.828-3.921-5.246-5.859-7.917c-0.844-1.163-1.756-2.279-2.593-3.447
	c-0.432-0.603-0.84-1.661-1.392-2.142c-0.161-0.232-0.322-0.465-0.483-0.697c0.92-1.326,3.344-2.857,4.522-3.746
	c2.774-2.093,5.719-4.042,8.64-5.943c3.055-1.988,6.11-3.976,9.23-5.861c2.767-1.672,7.365-5.369,10.708-5.668
	C429.744,177.812,431.108,182.338,432.795,184.443z"/>
<path d="M284.841,164.391c3.63,2.607,7.658,4.829,11.56,6.994c7.013,3.89,14.089,7.599,21.529,10.526
	c2.833,1.115,5.551,2.071,8.355,0.229c3.132-2.057,4.347-6.909,5.827-10.131c1.963-4.276,3.783-8.57,5.844-12.822
	c1.025-2.115,2.099-4.207,3.145-6.307c0.206-0.414,0.369-0.833,0.515-1.254c1.265-1.928,2.573-3.825,3.947-5.681
	c0.65-0.877,1.297-1.763,1.945-2.65c1.232,1.682,2.683,3.253,3.85,4.949c2.359,3.428,4.562,6.854,6.744,10.399
	c0.535,0.869,2.247,2.612,2.683,3.672c-0.128,0.222-0.305,0.557-0.542,1.031c-0.436,0.588-0.854,1.189-1.255,1.801
	c-2.12,3.086-4.426,6.173-6.947,8.941c-1.78,1.955-0.951,5.402,1.789,5.949c2.402,0.479,4.803-0.022,7.233-0.18
	c3.089-0.201,6.163-0.111,9.245-0.429c6.211-0.64,12.461-0.274,18.691-0.339c4.51-0.047,10.622,1.14,14.552-1.847
	c3.556-2.703,5.736-8.904,8.249-12.59c3.638-5.334,7.153-10.573,10.11-16.314c1.287-2.498,2.536-5.065,4.135-7.37
	c0.888-1.28,2.335-2.683,2.261-4.378c-0.169-3.894-5.846-3.95-8.63-3.819c-2.923,0.137-6.098,0.953-8.884,1.791
	c-1.159,0.348-3.638,1.495-5.281,1.967c-1.775-3.818-2.484-8.256-4.638-11.956c-2.527-4.34-6.929-8.849-11.091-11.592
	c-3.284-2.165-6.723-3.322-10.17-3.648c-0.295-0.129-0.587-0.26-0.891-0.38c-3.526-1.395-7.265-2.063-10.955-2.864
	c-8.257-1.791-16.431-3.113-24.896-3.57c-14.976-0.809-30.625,4.528-40.599,16.171c-5.432,6.34-11.101,12.446-15.77,19.386
	c-2.125,3.158-3.367,6.544-5.198,9.862c-1.54,2.79-3.245,5.788-2.633,9.085C279.281,160.318,282.278,162.55,284.841,164.391z
	 M373.083,117.669c12.465-4.008,23.592,10.348,26.238,20.976c1.064,4.274,3.103,5.816,7.574,4.704
	c2.935-0.73,5.709-2.109,8.565-3.101c1.521-0.527,3.061-1.11,4.647-1.414c0.281-0.054,0.888-0.062,1.508-0.095
	c-0.929,1.557-1.952,3.1-2.769,4.618c-1.898,3.529-3.694,7.046-5.952,10.359c-2.519,3.696-5.178,7.293-7.708,10.979
	c-1.618,2.358-2.75,6.25-5.36,7.674c-3.078,1.679-7.033,0.338-10.321,0.166c-4.008-0.21-8.074-0.214-12.098-0.374
	c-5.339-0.213-10.725,0.424-16.085,0.722c1.057-1.591,2.112-3.185,3.147-4.785c1.602-2.477,3.836-5.086,2.061-7.999
	c-0.998-1.637-2.401-2.827-3.371-4.544c-1.12-1.983-2.134-4.035-3.324-5.976c-1.247-2.033-2.632-3.985-3.906-6.003
	c-1.029-1.63-3.266-3.617-3.923-5.36c-0.087-0.231-0.194-0.436-0.312-0.628c2.057-2.759,4.168-5.476,6.407-8.045
	C362.327,124.695,366.73,119.712,373.083,117.669z M290.444,148.043c1.248-2.955,2.641-5.42,4.635-7.959
	c4.507-5.741,8.836-11.556,13.816-16.921c8.962-9.653,22.16-13.761,34.99-13.353c7.565,0.241,14.99,1.144,22.457,2.182
	c-2.47,1.216-4.834,2.798-7.026,4.672c-8.689,7.429-15.427,18.699-21.274,28.363c-1.775,2.933-3.426,5.94-5.013,8.981
	c-1.143,1.752-2.228,3.586-3.346,5.528c-1.658,2.88-2.75,5.944-4.178,8.919c-0.622,1.295-1.17,2.628-1.8,3.921
	c-0.325,0.667-1.062,1.529-1.222,2.243c-0.128,0.252-0.255,0.504-0.383,0.756c-1.604-0.179-4.103-1.583-5.446-2.197
	c-3.16-1.445-6.275-3.109-9.336-4.775c-3.201-1.742-6.403-3.485-9.544-5.333c-2.787-1.639-8.225-3.926-10.078-6.724
	C286.061,153.881,289.395,150.528,290.444,148.043z"/>
<path d="M119.353,414.151c3.105-4.485,3.539-10.715,1.114-15.607c-2.25-4.538-6.917-9.073-12.24-8.656
	c-4.435,0.347-7.727,2.593-9.779,5.704c-0.546,0.393-1.061,0.838-1.538,1.335c-3.402,3.546-5.071,8.72-4.134,13.555
	C95.315,423.591,112.484,424.073,119.353,414.151z"/>
<path d="M343.732,414.215c3.105-4.485,3.539-10.715,1.113-15.608c-2.25-4.538-6.916-9.073-12.24-8.655
	c-4.435,0.347-7.727,2.593-9.779,5.704c-0.546,0.393-1.061,0.838-1.538,1.335c-3.402,3.546-5.071,8.72-4.134,13.555
	C319.696,423.655,336.864,424.136,343.732,414.215z"/>
<path d="M500.078,445.494c-6.441-3.84-13.29-1.221-20.207-0.933c-5.897,0.245-11.734,0.538-17.597,0.726
	c1.174-1.438,2.286-2.978,3.32-4.644c6.692-10.785,11.206-25.063,10.196-37.792c-0.012-0.153-0.034-0.305-0.047-0.458
	c3.177-0.312,6.293-0.129,9.503-0.466c5.733-0.601,12.548-1.656,15.958-6.905c3.51-5.403,2.876-12.781,2.768-18.895
	c-0.109-6.177-0.305-11.835-2.424-17.339c1.497-2.396,1.644-5.253,2.193-8.175c0.973-5.175,1.112-9.808,0.974-15.07
	c-0.323-12.259-0.868-24.715-0.062-36.961c0.792-12.039,1.006-23.923,0.859-36.002c-0.142-11.737,1.033-23.315,1.003-35.02
	c-0.031-12.065-0.896-24.029-0.908-36.083c-0.006-5.784-0.098-11.448-0.62-17.208c-0.532-5.858,0.098-11.727-0.602-17.561
	c-0.588-4.895-0.395-9.797-0.967-14.687c-0.669-5.711,0.422-11.805-0.821-17.406c-0.02-0.091-0.051-0.177-0.073-0.268
	c2.128-4.279,4.029-8.76,5.995-13.138c1.924-4.283,3.784-8.936,3.441-13.73c-0.689-9.627-4.617-17.826-12.595-23.565
	c-8.246-5.932-19.943-8.68-29.663-11.165c-8.139-2.081-16.553-7.413-25.087-7.808c0.015-1.777,0.035-3.577,0.243-5.409
	c0.544-4.778,1.016-9.599,1.011-14.42c-0.011-9.67-5.661-15.579-15.459-14.814c-8.148,0.636-15.813,6.05-16.628,14.668
	c-0.428,4.528,0.301,9.466,0.573,14.001c0.112,1.86,0.234,3.699,0.51,5.483c-0.497,0.005-0.994,0.011-1.496,0.011
	c-12.417,0.019-24.836-0.085-37.253,0.01c-10.917,0.083-21.717-2.284-32.647-2.606c-11.958-0.353-23.909,0.853-35.763-0.723
	c-5.353-0.712-10.348,0.649-15.677,0.687c-5.861,0.042-11.751-0.388-17.545,0.747c-4.656,0.912-7.711,2.905-11.051,6.181
	c-4.177,4.096-8.669,7.776-12.479,12.236c-8.33,9.752-17.732,18.458-25.887,28.412c-7.327,8.944-16.266,17.271-18.395,29
	c-1.086,5.987-0.915,11.774-1.441,17.806c-0.234,2.683-0.442,5.389-0.624,8.097c-2.936-0.309-5.843-0.833-8.809-1.027
	c-4.385-0.286-8.548,1.032-12.876,1.257c-8.697,0.452-17.722,0.019-26.438-0.119c-4.173-0.066-8.348-1.157-12.493-0.749
	c-4.362,0.429-8.446,0.725-12.857,0.682c-7.483-0.073-18.106,0.587-24.636,4.561c-7.018,4.27-13.008,12.597-18.164,18.859
	c-5.409,6.57-11.285,13.075-15.849,20.275c-4.664,7.357-9.395,14.559-14.378,21.713c-2.25,3.23-4.699,6.216-7.158,9.28
	c-2.79,3.477-4.41,7.27-6.708,11.018c-10.198,16.629-7.158,38.715-7.006,57.368c0.151,18.493,0.512,36.975,1.17,55.434
	c-3.801-0.942-7.746-0.955-12.022-0.305c-5.837,0.886-13.181,1.659-18.444,4.482c-11.938,6.402-6.942,21.37-6.687,31.813
	c0.14,5.745,0.637,12.623,6.037,15.901c2.09,1.269,4.627,1.931,7.311,2.329c0.01,0.003,0.021,0.007,0.031,0.01
	c4.639,1.499,9.886,3.048,14.683,3.823c7.249,1.172,18.335,3.627,26.393,0.912c0.038,0.824,0.092,1.647,0.167,2.47
	c0.581,6.34,1.756,12.801,4.743,18.491c2.005,3.819,5.155,7.736,8.428,11.247c-3.801-0.125-7.606-0.213-11.418-0.209
	c-9.168,0.01-18.201-0.296-27.259,0.915c-7.116,0.951-15.347,1.293-21.378,5.718c-5.768,4.232-5.222,10.679-5.178,17.079
	c0.05,7.175-0.058,15.91,6.55,20.395c5.095,3.458,11.951,3.986,17.937,3.808c9.005-0.268,17.985-0.273,26.996-0.304
	c19.412-0.066,38.785-0.635,58.191-0.904c19.384-0.268,38.749,0.979,58.132,1.062c19.109,0.082,38.231,0.413,57.333-0.224
	c18.867-0.628,37.738,0.484,56.584-0.033c9.197-0.252,18.308-1.246,27.532-1.218c9.621,0.03,19.241,0.148,28.863,0.155
	c19.139,0.012,38.279,0.046,57.418,0.038c9.115-0.004,18.204-0.51,27.313-0.768c9.226-0.261,18.5-1.155,27.72-1.079
	c8.904,0.073,17.734-0.744,26.623-0.802c7.325-0.048,15.195,1.227,21.502-3.504c5.529-4.148,6.927-13.076,6.806-19.625
	C509.184,457.798,506.118,449.095,500.078,445.494z M34.651,395.435c0.228,0.626,0.51,1.212,0.817,1.777
	c-0.702,0.038-1.395,0.063-2.069,0.059c-2.742-0.02-5.715-1.193-8.453-1.561c-2.466-0.332-4.94-0.478-7.421-0.662
	c-2.877-0.214-3.885,0.21-4.376-2.786c-0.425-2.594-0.075-5.234-0.301-7.832c-0.372-4.277-2.338-8.793-1.325-13.056
	c1.058-4.453,2.738-4.668,7.037-5.62c4.546-1.007,9.087-2.301,13.661-3.132c2.338-0.425,4.468-0.79,6.528-1.324
	c0.091,0.638,0.292,1.181,0.589,1.616c-2.458,5.438-3.775,11.493-4.904,17.323C33.472,385.203,32.878,390.562,34.651,395.435z
	 M439.2,445.485c-0.202,0.055-0.414,0.102-0.619,0.154c-8.123,0.16-16.24,0.396-24.357,0.554c-3.357-0.755-6.536-1.897-9.324-3.514
	c-4.21-2.441-7.133-6.366-10.447-9.826c-4.172-4.355-6.402-8.325-7.713-14.255c-2.558-11.575-1.158-24.171,5.27-34.29
	c3.689-5.806,8.525-9.726,14.272-13.38c2.405-1.529,4.781-3.308,7.306-4.614c0.799-0.218,1.6-0.417,2.404-0.569
	c4.414-0.837,8.933-1.732,13.457-1.256c5.474,0.576,9.441,3.419,13.947,6.235c8.609,5.38,14.958,15.439,17.837,25.159
	C466.238,412.787,458.119,440.335,439.2,445.485z M280.251,414.361c0.581,6.339,1.756,12.801,4.743,18.491
	c2.359,4.493,6.297,9.125,10.164,13.064c-6.755-0.466-13.435-0.887-20.331-0.717c-9.251,0.228-18.471,0.465-27.727,0.451
	c-8.569-0.014-16.881,0.426-25.41,0.916c-18.808,1.081-38.213,0.516-57.035-0.157c-7.208-0.258-14.313-0.669-21.504-0.803
	c1.416-1.651,2.747-3.443,3.969-5.411c5.845-9.421,10.027-21.505,10.319-32.895c3.782-0.043,7.766-1.49,10.639-3.558
	c0.258-0.186,0.506-0.392,0.757-0.591c2.92,0.512,5.868,0.855,8.845,1.026c5.228,0.3,10.331,1.28,15.547,1.628
	c5.242,0.35,10.518-0.885,15.665-0.352c5.459,0.565,10.598,0.91,16.105,0.785c10.523-0.238,21.076,0.655,31.541,1.584
	c5.191,0.46,10.936-0.356,16.195-0.481c2.986-0.071,5.328-0.385,7.366-1.25C279.959,408.84,279.998,411.605,280.251,414.361z
	 M292.645,418.213c-2.559-11.575-1.158-24.171,5.27-34.29c3.688-5.806,8.525-9.726,14.272-13.38
	c2.405-1.529,4.781-3.308,7.306-4.614c0.799-0.218,1.6-0.417,2.404-0.569c4.414-0.837,8.933-1.732,13.457-1.255
	c5.473,0.576,9.441,3.419,13.947,6.235c8.609,5.38,14.958,15.439,17.837,25.159c5.005,16.901-3.114,44.45-22.032,49.6
	c-1.958,0.533-4.045,0.963-6.208,1.274c-1.974,0.135-3.973,0.319-5.99,0.53c-7.793,0.288-15.901-1.014-22.102-4.61
	c-4.21-2.441-7.133-6.366-10.447-9.826C296.185,428.113,293.956,424.143,292.645,418.213z M371.499,440.256
	c2.162-3.484,4.091-7.336,5.686-11.38c0.536,1.492,1.164,2.95,1.905,4.361c2.393,4.557,6.411,9.257,10.331,13.231
	c-6.856,0.232-13.704,0.724-20.587,0.72c-0.878,0-1.756-0.023-2.633-0.045C368.127,445.109,369.903,442.829,371.499,440.256z
	 M490.672,386.357c-0.806,1.824-1.726,1.646-4.15,2.007c-3.01,0.449-5.884,0.019-8.898,0.138c-1.675,0.066-3.197,0.451-4.723,0.685
	c-7.11-20.884-25.964-39.189-48.569-38.354c-14.719,0.544-29.261,7.83-38.858,18.966c-3.554,4.125-6.497,9.043-8.484,14.305
	c-8.176-18.851-25.862-34.429-46.753-33.657c-14.719,0.543-29.261,7.83-38.858,18.965c-5.837,6.773-10.044,15.674-11.016,24.753
	c-3.644-1.121-8.208-1.754-9.765-4.751c-2.378-4.577-0.375-12.386,1.192-16.968c3.656-10.691,11.114-20.112,18.99-28.006
	c15.104-15.139,41.661-16.822,59.54-5.219c4.332,2.811,9.199,5.94,12.215,10.104c2.87,3.962,7.181,7.208,12.268,5.362
	c4.719-1.714,7.987-7.402,11.891-10.488c4.343-3.433,9.777-4.786,14.905-6.631c11.335-4.079,23.529-6.709,35.567-7.453
	c12.904-0.799,25.151,4.427,34.573,13.035c2.598,2.374,4.839,5.093,7.536,7.362c2.717,2.285,5.306,4.163,7.471,7.029
	c4.477,5.925,4.507,11.437,4.445,18.582C491.165,378.983,491.887,383.606,490.672,386.357z M462.311,71.052
	c8.906,3.287,18.513,5.192,26.988,9.614c3.465,1.808,7.63,5.198,9.04,9.045c1.03,2.813,1.399,8.232,0.38,10.925
	c-1.183,3.127-3.177,6.164-4.95,9.232c-2.263-2.858-4.515-5.754-6.901-8.479c-6.787-7.754-14.087-15.125-22.125-21.573
	c-5.204-4.175-9.566-9.363-14.344-14.032C454.304,67.657,458.247,69.552,462.311,71.052z M430.476,32.057
	c3.123-0.526,3.61-0.15,3.649,3.054c0.04,3.3-0.161,6.765-0.432,10.056c-0.274,3.323-0.78,6.708-0.903,10.054
	c-2.641-0.547-5.333-0.762-8.091-0.832c0.527-3.119,0.565-6.387,0.661-9.472C425.52,39.683,423.586,33.218,430.476,32.057z
	 M213.672,305.378c0.273-8.613,0.471-17.159,1.048-25.767c0.595-8.887,1.896-17.787,1.828-26.709
	c-0.148-19.276-0.09-38.556-0.108-57.833c-0.008-8.941,0.928-18.009,0.019-26.921c-0.13-1.27-0.327-2.529-0.612-3.74
	c0.595-7.805,1.531-15.577,1.875-23.401c0.2-4.562,0.341-9.423,1.948-13.776c1.503-4.071,5.779-8.531,8.596-11.902
	c6.813-8.155,14.226-16.246,21.811-23.698c7.34-7.212,14.187-14.757,21.634-21.867c1.224-1.169,2.295-2.695,3.825-3.407
	c2.209-1.03,5.363-0.852,7.731-0.878c5.471-0.059,10.85,0.246,16.284-0.519c4.787-0.674,8.944,0.401,13.702,0.785
	c5.796,0.467,11.715-0.157,17.53-0.15c10.69,0.014,21.013,0.992,31.641,1.779c21.358,1.581,42.847,0.916,64.293,0.882
	c9.21-0.015,15.237,9.553,21.284,15.323c6.874,6.558,14.511,11.974,20.581,19.345c2.706,3.286,6.022,5.916,8.732,9.173
	c2.717,3.266,5.369,6.66,8.006,9.991c3.304,4.174,3.312,7.117,3.145,12.252c-0.163,4.99,0.853,9.908,0.934,14.908
	c0.171,10.46,1.308,20.963,1.768,31.434c0.252,5.733,0.031,11.516,0.037,17.255c0.006,5.411,0.842,10.734,0.926,16.134
	c0.093,6.01-0.018,12.032,0.008,18.042c0.026,6.008-1.003,11.908-1.091,17.916c-0.187,12.754,0.631,25.561,0.072,38.308
	c-0.541,12.351-1.235,24.435-0.993,36.832c0.111,5.671,0.662,11.562,0.367,17.223c-0.027,0.526-0.095,1.047-0.18,1.565
	c-1.435-1.325-2.902-2.654-4.381-4.077c-6.074-5.845-11.839-11.348-19.219-15.606c-6.178-3.564-12.89-5.186-19.901-6.205
	c-8.125-1.181-15.502,0.312-23.56,1.039c-7.608,0.687-15.057,2.794-22.372,5.028c-6.414,1.959-13.732,4.139-19.388,7.808
	c-2.9,1.881-5.489,4.36-7.989,6.731c-0.147,0.139-0.761,0.676-1.447,1.312c-1.424-2.055-3.855-3.598-5.761-5.007
	c-3.57-2.638-7.121-5.478-10.953-7.728c-22.74-13.347-54.773-10.314-73.611,8.133c-7.673,7.514-15.181,16.56-19.961,26.625
	c-5.894-1.805-12.66-1.415-18.588-2.037c-8.492-0.892-17.21,2.086-25.618,1.182c-1.484-0.16-2.975-0.112-4.474,0
	c-0.107-9.34-0.023-18.686-0.251-28.023C212.611,323.771,213.376,314.692,213.672,305.378z M207.084,374.394
	c2.537,0.131,4.935-0.116,7.447-0.212c1.69-0.065,3.183,0.155,4.958,0.326c4.039,0.389,8.337-0.633,12.421-0.788
	c4.53-0.172,8.497-0.962,13.061-0.363c4.214,0.553,8.426,0.373,12.621,0.881c-0.123,0.588-0.257,1.174-0.357,1.768
	c-1.085,6.418-1.499,12.718,1.179,18.485c-1.61,0.017-3.233-0.02-4.899-0.19c-5.219-0.531-10.401-0.21-15.628-0.812
	c-5.207-0.6-10.576-0.097-15.798,0.127c-5.101,0.219-10.001-0.765-15.045-0.738c-4.946,0.027-9.801,0.912-14.799,0.842
	c-5.8-0.081-11.356-0.267-16.911,0.107c0.033-0.113,0.078-0.222,0.109-0.336c1.026-3.822,1.864-9.276,1.128-13.171
	c-0.504-2.668-0.993-5.286-1.538-7.863c6.07,0.995,12.825,0.677,18.425,0.937C198.012,373.605,202.534,374.159,207.084,374.394z
	 M48.77,336.999c0.356-9.203,0.392-18.404,0.473-27.614c0.149-17.047-1.424-34.952,1.703-51.699
	c2.738-14.661,14.131-26.241,22.613-38.112c4.405-6.165,7.98-12.934,12.53-18.972c5.185-6.88,10.909-13.621,16.673-20.021
	c2.298-2.551,4.68-5.015,7.086-7.463c3.12-3.174,5.154-3.911,9.51-4.669c8.22-1.431,16.445-1.059,24.715-1.807
	c3.768-0.341,7.548,0.542,11.354,0.68c4.019,0.146,8.058,0.049,12.08,0.061c3.889,0.012,7.77,0.041,11.656,0.14
	c4.439,0.113,8.493-0.75,12.874-1.096c2.896-0.229,5.184,0.468,7.983,0.855c-0.009-0.001,2.227,0.346,3.177,0.112
	c0.154,1.146,0.207,2.714,0.209,2.75c0.631,8.985-0.249,18.134-0.262,27.139c-0.026,17.831-0.186,35.668-0.061,53.499
	c0.124,17.562-2.836,35.023-2.952,52.586c-0.063,9.599-1.154,19.071-0.942,28.723c0.213,9.735,0.103,19.47-0.023,29.205
	c-3.202-0.167-6.394-0.283-9.647-0.138c-4.394,0.195-11.753-0.377-17.091,1.35c-1.214-3.678-2.757-7.286-4.877-10.845
	c-5.23-8.78-12.669-16.287-21.746-21.056c-8.793-4.619-18.934-7.284-28.77-7.764c-10.845-0.53-21.287-1.432-31.845,1.935
	c-9.502,3.031-19.964,6.709-27.33,13.663c-3.774,3.563-7.222,7.195-10.292,11.108C48.125,345.412,48.604,341.267,48.77,336.999z
	 M55.835,395.707c-2.421-0.972-4.967-1.636-7.438-2.546c-4.561-1.678-3.261-6.757-2.582-10.83
	c1.549-9.299,4.205-19.485,10.503-26.81c6.427-7.475,13.098-12.929,22.149-16.807c9.062-3.883,18.516-6.253,28.429-6.008
	c19.49,0.481,39.156,5.347,49.977,23.072c4.895,8.018,7.238,16.966,7.749,26.241c0.165,2.99-0.217,8.08-2.336,10.43
	c-1.103,1.223-4.27,2.757-6.048,2.746c-5.099-23.408-25.468-45.731-50.381-44.811c-14.719,0.543-29.261,7.83-38.858,18.965
	C60.819,376.521,56.452,386.079,55.835,395.707z M68.265,418.149c-2.559-11.575-1.158-24.171,5.27-34.289
	c3.689-5.806,8.525-9.726,14.272-13.38c2.405-1.529,4.781-3.308,7.306-4.614c0.799-0.218,1.6-0.417,2.404-0.569
	c4.414-0.837,8.933-1.732,13.457-1.255c5.473,0.576,9.441,3.419,13.947,6.235c8.61,5.38,14.958,15.439,17.837,25.159
	c5.005,16.901-3.114,44.45-22.032,49.6c-0.686,0.187-1.39,0.359-2.106,0.521c-2.651,0.001-5.303,0.003-7.954,0.004
	c-5.788,0.002-11.565-0.192-17.34-0.444c-2.46-0.721-4.794-1.665-6.9-2.886c-4.21-2.441-7.133-6.366-10.447-9.826
	C71.805,428.049,69.576,424.079,68.265,418.149z M496.34,466.583c-0.178,2.785-0.262,6.641-2.798,7.941
	c-2.776,1.423-6.896,0.482-9.858,0.401c-8.762-0.237-17.504,0.931-26.276,0.835c-16.496-0.18-33.067,1.345-49.578,1.76
	c-34.406,0.864-68.871-0.835-103.271,0.039c-8.493,0.216-16.904,1.276-25.409,1.21c-8.577-0.066-17.147-0.166-25.725-0.137
	c-17.807,0.061-35.582,1.026-53.391,1.09c-35.054,0.125-70.087-0.969-105.129-0.041c-17.42,0.461-34.881,0.354-52.304,0.115
	c-6.878-0.095-14.294,1.082-21.085-0.119c-2.911-0.515-4.764-0.786-5.411-3.833c-0.82-3.864-0.951-9.252-0.397-13.178
	c0.388-2.746,0.672-2.615,3.712-3.455c3.229-0.892,6.589-1.242,9.909-1.439c4-0.238,7.829-0.946,11.864-0.893
	c5.107,0.068,10.215,0.059,15.322,0.068c7.223,0.012,14.466-0.252,21.649,0.555c4.269,0.479,8.391,0.454,12.679,0.435
	c0.006,0,0.011,0,0.017,0c7.673,1.997,15.952,2.196,23.69,1.512c1.843-0.163,3.634-0.415,5.377-0.747
	c13.374-0.25,26.847-0.607,40.015,0.729c9.693,0.984,19.653,0.438,29.395,0.546c9.348,0.105,18.698,0.192,28.044-0.029
	c9.286-0.22,18.415-1.088,27.737-1.096c8.86-0.007,17.712,0.014,26.565-0.408c9.995-0.477,19.741-0.419,29.726-0.357
	c4.16,0.026,8.651,0.105,12.829-0.361c7.95,2.252,16.616,2.5,24.693,1.786c2.271-0.201,4.459-0.542,6.578-1
	c5.226,0.365,10.447,0.74,15.654,0.71c7.944-0.046,15.966,0.249,23.883-0.438c7.892-0.684,15.77-0.335,23.663-0.559
	c7.846,2.154,16.368,2.375,24.317,1.673c4.383-0.387,8.49-1.248,12.294-2.616c5.994-0.019,11.991,0.001,17.993,0.018
	c7.554,0.021,15.31-0.541,22.828-1.307c2.357-0.24,5.828-1.297,7.745,0.616C496.078,458.801,496.516,463.841,496.34,466.583z"/>
<path d="M426.701,390.338c-4.435,0.347-7.727,2.593-9.779,5.704c-0.546,0.393-1.06,0.838-1.538,1.335
	c-3.402,3.546-5.071,8.72-4.134,13.555c2.54,13.109,19.709,13.591,26.577,3.67c3.105-4.485,3.539-10.715,1.113-15.608
	C436.691,394.456,432.024,389.921,426.701,390.338z"/>
<path d="M69.818,303.811c2.729,1.799,6.903,1.67,10.058,2.091c5.325,0.711,10.859,0.342,16.221,0.339
	c10.403-0.006,20.606-0.743,30.869,1.331c4.789,0.968,10.412,0.69,14.888,2.613c4.349,1.869,8.635,4.59,12.038,7.871
	c6.742,6.5,8.652,15.384,12.839,23.4c3.177,6.082,11.533,8.244,16.821,3.516c5.86-5.239,6.054-15.208,5.928-22.453
	c-0.11-6.276-0.01-12.076,0.689-18.31c0.649-5.786-0.642-11.855-0.692-17.709c-0.087-10.228,1.421-20.186,0.712-30.348
	c0.363-0.716,0.682-1.514,0.946-2.433c2.033-7.083,3.77-14.884,3.482-22.29c-0.3-7.684-0.471-15.327-0.691-23.012
	c-0.118-4.11-0.831-8.204-0.881-12.311c-0.041-3.362,0.8-6.74,0.177-10.085c-1.166-6.258-6.081-8.049-11.723-8.854
	c-3.599-0.514-7.039-0.476-10.656-0.49c-3.93-0.016-7.757-0.922-11.682-0.982c-3.861-0.059-7.618,1.1-11.423,0.498
	c-3.904-0.618-7.748-0.862-11.706-0.437c-3.211,0.345-6.859,0.292-9.992,1.118c-3.487,0.918-6.573,3.581-9.112,6.013
	c-6.206,5.946-11.238,13.3-16.806,19.833c-0.202,0.237-0.394,0.48-0.595,0.718c-3.278,3.043-6.48,6.156-9.28,9.723
	c-4.267,5.435-8.188,11.177-12.221,16.788c-4.242,5.901-8.948,12.222-10.994,19.313c-0.995,3.449-0.63,5.811,0.576,7.445
	c-0.466,1.133-0.932,2.264-1.155,3.357c-0.447,2.193-0.387,4.536-0.434,6.764c-0.11,5.23-0.154,10.461-0.274,15.691
	C65.594,289.028,63.305,299.518,69.818,303.811z M183.927,218.234c0.028,5.691,1.245,11.426,0.876,17.107
	c-0.217,3.33-1.147,6.651-1.922,9.881c-0.339,1.412-0.506,3.02-1.043,4.362c-0.875,2.183,0.649,1.118-1.441,2.157
	c-4.442,2.211-11.811,1.284-16.624,1.319c-2.405,0.017-4.81,0.002-7.215-0.022c1.145-3.395,1.339-6.904,2.394-10.589
	c1.643-5.738,2.019-11.919,3.04-17.806c0.42-2.42,0.339-5.051,1.043-7.403c1.097-3.664,2.957-3.03,6.31-2.947
	c4.927,0.121,9.617,0.925,14.544,1.08C183.902,216.325,183.922,217.275,183.927,218.234z M77.691,247.65
	c0.846-1.738,1.818-3.416,2.825-5.064c1.681-2.751,3.545-5.387,5.404-8.018c3.197-4.522,6.075-9.253,9.163-13.844
	c6.727-6.176,13.036-12.69,19.178-19.624c3.63-4.098,7.153-8.734,11.451-12.171c4.122-3.296,13.292-3.587,18.52-2.978
	c1.99,0.232,3.917,0.887,5.947,0.866c2.691-0.029,5.327-0.836,8.035-0.883c5.921-0.104,12.103,0.57,18.047,0.807
	c3.032,0.121,6.742-0.281,7.093,3.249c0.263,2.645-0.363,5.478-0.181,8.185c0.177,2.616,0.315,5.205,0.432,7.79
	c-6.277-0.059-12.375-1.029-18.72-0.845c-6.508,0.188-9.449,4.486-10.464,10.576c-1.219,7.308-1.965,14.689-2.586,22.065
	c-0.39,4.625-1.329,10.291-0.404,15.21c-2.567-0.04-5.133-0.083-7.7-0.116c-6.575-0.085-13.174,0.11-19.77,0.225
	c-0.009-0.036-0.014-0.061-0.025-0.1c-0.052-0.702-0.078-1.405-0.077-2.11c-0.023-1.151,0.039-2.306,0.088-3.457
	c0.106-2.48,0.264-4.765-0.04-7.234c-0.663-5.375,0.132-12.533-3.977-16.716c-1.32-1.344-3.216-1.387-4.819-0.623
	c-3.994,1.903-6.96,5.075-10.963,7.025c-4.397,2.142-8.321,5.07-12.591,7.439c-3.368,1.869-6.503,4.271-9.387,6.836
	c-1.518,1.35-3.105,2.675-4.652,4.044C77.642,247.832,77.715,247.601,77.691,247.65z M116.014,253.148
	c-3.87-0.005-7.736-0.079-11.592-0.315c-5.866-0.358-11.831-0.557-17.667-1.188c-1.006-0.109-2.002-0.217-2.999-0.309
	c0.492-0.277,0.981-0.576,1.466-0.91c3.329-2.289,6.602-4.655,10.164-6.57c4.3-2.313,8.263-5.187,12.688-7.271
	c2.696-1.27,4.95-3.089,7.335-4.707c0.312,2.278-0.035,5.094,0.205,6.798c0.382,2.71,0.651,4.884,0.532,7.622
	C116.063,248.199,115.799,250.755,116.014,253.148z M72.904,259.695c3.816,0.92,8.563,0.806,12.025,1.181
	c16.051,1.74,32.057,1.725,48.19,1.714c15.498-0.011,31.588,1.917,46.919-0.63c0.698-0.116,1.366-0.239,2.005-0.376
	c-0.015,0.783-0.029,1.566-0.028,2.359c0.006,4.718-0.598,9.214-0.896,13.897c-0.601,9.442,1.724,19.268,0.352,28.503
	c-1.256,8.457,0.67,17.119-0.955,25.534c-0.665,3.444-3.521,10.818-6.674,4.567c-1.662-3.296-3.017-6.897-4.656-10.245
	c-3.486-7.123-6.848-12.754-13.353-17.658c-6.735-5.077-13.302-7.378-21.52-8.357c-8.694-1.036-16.634-2.843-25.497-2.667
	c-9.3,0.184-19.208,1.345-28.445,0.08c-1.406-0.193-3.966-0.132-5.211-0.683c-1.869-0.827-1.539-2.525-1.654-4.525
	c-0.263-4.561-0.168-9.175-0.272-13.744c-0.12-5.253-0.357-10.502-0.411-15.756C72.811,261.8,72.864,260.739,72.904,259.695z"/>
<path d="M144.993,285.354c3.425,1.929,7.09,1.773,10.884,1.592c4.054-0.194,8.471,1.054,12.093-1.269
	c3.419-2.193,3.603-9.058-1.27-9.74c-3.078-0.431-6.432-0.428-9.557-0.357c-0.255,0.006-0.543,0.032-0.846,0.066
	c-3.342-0.608-6.573-1.305-9.965-0.524C141.622,276.205,140.893,283.044,144.993,285.354z"/>
<g>
</g>
<g>
</g>
<g>
</g>
<g>
</g>
<g>
</g>
<g>
</g>
<g>
</g>
<g>
</g>
<g>
</g>
<g>
</g>
<g>
</g>
<g>
</g>
<g>
</g>
<g>
</g>
<g>
</g>
</svg>
